<!--?xml version="1.0" encoding="utf-8"?-->
<!-- Generator: Adobe Illustrator 18.1.1, SVG Export Plug-In . SVG Version: 6.00 Build 0)  -->

<svg version="1.1" id="_x32_" xmlns="http://www.w3.org/2000/svg" xmlns:xlink="http://www.w3.org/1999/xlink" x="0px" y="0px" viewBox="0 0 512 512" style="width: 512px; height: 512px; opacity: 1;" xml:space="preserve">
<style type="text/css">
	.st0{fill:#4B4B4B;}
</style>
<g>
	<path class="st0" d="M433.365,139.266H78.634c-17.649,0-31.95,14.301-31.95,31.952v338.377h418.632V171.218
		C465.316,153.567,451.015,139.266,433.365,139.266z M160.485,213.483c28.673,0,51.905,23.255,51.905,51.912
		c0,28.665-23.232,51.913-51.905,51.913c-28.664,0-51.904-23.248-51.904-51.913C108.581,236.738,131.821,213.483,160.485,213.483z
		 M171.469,442.501h-48.304v-72.456h48.304V442.501z M243.924,442.501H195.62v-72.456h48.304V442.501z M316.38,442.501h-48.304
		v-72.456h48.304V442.501z M388.835,442.501h-48.304v-72.456h48.304V442.501z M351.522,317.308
		c-28.672,0-51.904-23.248-51.904-51.913c0-28.657,23.232-51.912,51.904-51.912c28.665,0,51.904,23.255,51.904,51.912
		C403.427,294.06,380.187,317.308,351.522,317.308z" style="fill: rgb(255, 255, 255);"></path>
	<rect x="479.798" y="251.975" class="st0" width="32.202" height="96.608" style="fill: rgb(255, 255, 255);"></rect>
	<rect y="251.975" class="st0" width="32.202" height="96.608" style="fill: rgb(255, 255, 255);"></rect>
	<path class="st0" d="M251.975,104.383c28.154,0,50.985-22.831,50.985-50.993c0-28.153-22.831-50.984-50.985-50.984
		c-28.162,0-50.992,22.832-50.992,50.984C200.982,81.552,223.813,104.383,251.975,104.383z" style="fill: rgb(255, 255, 255);"></path>
</g>
</svg>
