<?xml version="1.0" encoding="UTF-8" standalone="no"?>
<!DOCTYPE svg PUBLIC "-//W3C//DTD SVG 1.1//EN" "http://www.w3.org/Graphics/SVG/1.1/DTD/svg11.dtd">
<svg width="100%" height="100%" viewBox="0 0 1920 540" version="1.1" xmlns="http://www.w3.org/2000/svg" xmlns:xlink="http://www.w3.org/1999/xlink" xml:space="preserve" xmlns:serif="http://www.serif.com/" style="fill-rule:evenodd;clip-rule:evenodd;stroke-linejoin:round;stroke-miterlimit:2;">
    <g transform="matrix(1,0,0,1,-74.1895,-1534.41)">
        <g transform="matrix(82.8018,81.6389,-80.0381,81.1782,388.203,1605.59)">
            <path d="M0.445,-0.351C0.508,-0.336 0.552,-0.319 0.577,-0.298C0.614,-0.268 0.632,-0.23 0.632,-0.183C0.632,-0.133 0.612,-0.092 0.572,-0.059C0.523,-0.02 0.451,-0 0.357,-0L0.021,-0L0.021,-0.018C0.052,-0.018 0.072,-0.021 0.083,-0.027C0.094,-0.032 0.102,-0.04 0.106,-0.049C0.111,-0.058 0.113,-0.08 0.113,-0.116L0.113,-0.546C0.113,-0.582 0.111,-0.604 0.106,-0.614C0.102,-0.623 0.094,-0.63 0.083,-0.636C0.072,-0.641 0.051,-0.644 0.021,-0.644L0.021,-0.662L0.338,-0.662C0.414,-0.662 0.468,-0.655 0.5,-0.642C0.531,-0.628 0.556,-0.608 0.574,-0.581C0.592,-0.554 0.602,-0.526 0.602,-0.496C0.602,-0.464 0.59,-0.435 0.567,-0.41C0.544,-0.385 0.503,-0.366 0.445,-0.351ZM0.267,-0.364C0.313,-0.364 0.347,-0.369 0.369,-0.38C0.391,-0.39 0.408,-0.405 0.42,-0.424C0.432,-0.443 0.438,-0.467 0.438,-0.496C0.438,-0.525 0.432,-0.549 0.42,-0.568C0.409,-0.587 0.392,-0.601 0.371,-0.611C0.349,-0.621 0.315,-0.625 0.267,-0.625L0.267,-0.364ZM0.267,-0.326L0.267,-0.114L0.267,-0.089C0.267,-0.072 0.271,-0.059 0.28,-0.05C0.289,-0.041 0.302,-0.036 0.32,-0.036C0.346,-0.036 0.37,-0.042 0.392,-0.053C0.414,-0.065 0.431,-0.082 0.442,-0.104C0.454,-0.126 0.46,-0.15 0.46,-0.177C0.46,-0.208 0.453,-0.236 0.438,-0.26C0.424,-0.285 0.404,-0.302 0.379,-0.312C0.354,-0.322 0.317,-0.326 0.267,-0.326Z" style="fill:rgb(138,147,64);fill-rule:nonzero;"/>
        </g>
        <g transform="matrix(89.7872,73.8871,-72.4383,88.0266,444.475,1660.79)">
            <path d="M0.631,-0.232L0.606,-0L0.019,-0L0.019,-0.018L0.041,-0.018C0.06,-0.018 0.075,-0.021 0.087,-0.028C0.095,-0.033 0.102,-0.041 0.106,-0.052C0.11,-0.06 0.112,-0.08 0.112,-0.113L0.112,-0.549C0.112,-0.583 0.11,-0.604 0.106,-0.612C0.103,-0.621 0.096,-0.628 0.085,-0.635C0.074,-0.641 0.059,-0.644 0.041,-0.644L0.019,-0.644L0.019,-0.662L0.372,-0.662L0.372,-0.644L0.343,-0.644C0.324,-0.644 0.308,-0.641 0.296,-0.634C0.288,-0.629 0.281,-0.621 0.276,-0.61C0.273,-0.603 0.271,-0.582 0.271,-0.549L0.271,-0.127C0.271,-0.093 0.273,-0.072 0.277,-0.062C0.281,-0.053 0.288,-0.046 0.3,-0.042C0.308,-0.039 0.328,-0.037 0.359,-0.037L0.414,-0.037C0.449,-0.037 0.479,-0.043 0.502,-0.056C0.525,-0.068 0.546,-0.088 0.563,-0.114C0.58,-0.141 0.596,-0.18 0.611,-0.232L0.631,-0.232Z" style="fill:rgb(138,147,64);fill-rule:nonzero;"/>
        </g>
        <g transform="matrix(96.366,65.074,-63.798,94.4765,505.345,1710.83)">
            <path d="M0.416,-0.188L0.182,-0.188L0.154,-0.124C0.145,-0.103 0.141,-0.085 0.141,-0.071C0.141,-0.052 0.148,-0.039 0.163,-0.03C0.172,-0.025 0.194,-0.021 0.228,-0.018L0.228,-0L0.008,-0L0.008,-0.018C0.032,-0.022 0.051,-0.031 0.066,-0.048C0.082,-0.064 0.101,-0.097 0.123,-0.147L0.36,-0.676L0.369,-0.676L0.608,-0.133C0.631,-0.081 0.649,-0.049 0.664,-0.036C0.675,-0.026 0.691,-0.02 0.711,-0.018L0.711,-0L0.391,-0L0.391,-0.018L0.404,-0.018C0.43,-0.018 0.448,-0.022 0.458,-0.029C0.465,-0.034 0.469,-0.042 0.469,-0.051C0.469,-0.057 0.468,-0.063 0.466,-0.069C0.465,-0.072 0.46,-0.084 0.451,-0.106L0.416,-0.188ZM0.399,-0.225L0.301,-0.453L0.199,-0.225L0.399,-0.225Z" style="fill:rgb(138,147,64);fill-rule:nonzero;"/>
        </g>
        <g transform="matrix(102.217,55.432,-54.3451,100.213,576.023,1758.33)">
            <path d="M0.667,-0.677L0.667,-0.448L0.648,-0.448C0.634,-0.508 0.607,-0.554 0.568,-0.585C0.529,-0.617 0.485,-0.633 0.436,-0.633C0.394,-0.633 0.356,-0.621 0.322,-0.598C0.287,-0.574 0.262,-0.543 0.246,-0.504C0.226,-0.455 0.215,-0.401 0.215,-0.34C0.215,-0.281 0.223,-0.227 0.238,-0.178C0.253,-0.13 0.276,-0.093 0.308,-0.068C0.34,-0.043 0.381,-0.031 0.432,-0.031C0.474,-0.031 0.512,-0.04 0.547,-0.058C0.581,-0.076 0.618,-0.108 0.656,-0.152L0.656,-0.095C0.619,-0.056 0.58,-0.028 0.54,-0.011C0.5,0.006 0.453,0.015 0.399,0.015C0.329,0.015 0.266,0.001 0.211,-0.027C0.156,-0.056 0.114,-0.096 0.084,-0.149C0.054,-0.202 0.04,-0.259 0.04,-0.319C0.04,-0.382 0.056,-0.442 0.089,-0.499C0.122,-0.555 0.167,-0.599 0.223,-0.63C0.279,-0.662 0.339,-0.677 0.402,-0.677C0.448,-0.677 0.498,-0.667 0.549,-0.647C0.579,-0.635 0.598,-0.629 0.606,-0.629C0.617,-0.629 0.626,-0.633 0.634,-0.641C0.641,-0.649 0.646,-0.661 0.648,-0.677L0.667,-0.677Z" style="fill:rgb(138,147,64);fill-rule:nonzero;"/>
        </g>
        <g transform="matrix(107.478,44.3794,-43.5092,105.371,651.007,1799.07)">
            <path d="M0.417,-0.409L0.649,-0.117C0.682,-0.076 0.711,-0.048 0.734,-0.034C0.752,-0.023 0.77,-0.018 0.789,-0.018L0.789,-0L0.444,-0L0.444,-0.018C0.466,-0.02 0.48,-0.023 0.487,-0.028C0.493,-0.033 0.496,-0.039 0.496,-0.046C0.496,-0.06 0.481,-0.086 0.451,-0.124L0.299,-0.314L0.275,-0.294L0.275,-0.113C0.275,-0.079 0.277,-0.057 0.281,-0.049C0.285,-0.04 0.292,-0.033 0.303,-0.027C0.314,-0.021 0.332,-0.018 0.356,-0.018L0.356,-0L0.022,-0L0.022,-0.018L0.044,-0.018C0.064,-0.018 0.079,-0.021 0.091,-0.028C0.099,-0.033 0.106,-0.041 0.11,-0.052C0.114,-0.06 0.116,-0.08 0.116,-0.113L0.116,-0.549C0.116,-0.583 0.114,-0.604 0.11,-0.612C0.107,-0.621 0.1,-0.628 0.089,-0.635C0.078,-0.641 0.063,-0.644 0.044,-0.644L0.022,-0.644L0.022,-0.662L0.352,-0.662L0.352,-0.644C0.33,-0.644 0.313,-0.641 0.301,-0.634C0.292,-0.63 0.286,-0.622 0.281,-0.611C0.277,-0.603 0.275,-0.582 0.275,-0.549L0.275,-0.343L0.521,-0.542C0.555,-0.569 0.572,-0.591 0.572,-0.608C0.572,-0.62 0.565,-0.63 0.551,-0.637C0.544,-0.641 0.526,-0.643 0.498,-0.644L0.498,-0.662L0.756,-0.662L0.756,-0.644C0.733,-0.642 0.715,-0.638 0.701,-0.632C0.688,-0.625 0.658,-0.602 0.61,-0.564L0.417,-0.409Z" style="fill:rgb(138,147,64);fill-rule:nonzero;"/>
        </g>
        <g transform="matrix(110.89,34.9931,-34.307,108.715,735.986,1833.39)">
            <path d="M0.142,-0.644L0.142,-0.662L0.494,-0.662L0.494,-0.644L0.473,-0.644C0.453,-0.644 0.438,-0.641 0.426,-0.634C0.418,-0.629 0.411,-0.621 0.406,-0.61C0.403,-0.603 0.401,-0.582 0.401,-0.549L0.401,-0.225C0.401,-0.161 0.395,-0.115 0.382,-0.086C0.369,-0.057 0.347,-0.033 0.314,-0.014C0.282,0.005 0.243,0.015 0.197,0.015C0.142,0.015 0.097,0 0.062,-0.029C0.028,-0.058 0.011,-0.09 0.011,-0.126C0.011,-0.149 0.018,-0.167 0.032,-0.181C0.046,-0.196 0.063,-0.203 0.083,-0.203C0.103,-0.203 0.12,-0.196 0.133,-0.184C0.147,-0.171 0.153,-0.155 0.153,-0.137C0.153,-0.128 0.152,-0.12 0.15,-0.113C0.149,-0.11 0.143,-0.101 0.135,-0.088C0.126,-0.075 0.121,-0.066 0.121,-0.06C0.121,-0.052 0.125,-0.044 0.134,-0.038C0.146,-0.029 0.162,-0.024 0.182,-0.024C0.196,-0.024 0.208,-0.028 0.217,-0.035C0.226,-0.042 0.232,-0.053 0.236,-0.069C0.24,-0.084 0.242,-0.126 0.242,-0.195L0.242,-0.549C0.242,-0.583 0.24,-0.604 0.236,-0.612C0.232,-0.621 0.225,-0.628 0.214,-0.635C0.203,-0.641 0.188,-0.644 0.17,-0.644L0.142,-0.644Z" style="fill:rgb(138,147,64);fill-rule:nonzero;"/>
        </g>
        <g transform="matrix(113.406,25.693,-25.1892,111.182,792.466,1851.67)">
            <path d="M0.416,-0.188L0.182,-0.188L0.154,-0.124C0.145,-0.103 0.141,-0.085 0.141,-0.071C0.141,-0.052 0.148,-0.039 0.163,-0.03C0.172,-0.025 0.194,-0.021 0.228,-0.018L0.228,-0L0.008,-0L0.008,-0.018C0.032,-0.022 0.051,-0.031 0.066,-0.048C0.082,-0.064 0.101,-0.097 0.123,-0.147L0.36,-0.676L0.369,-0.676L0.608,-0.133C0.631,-0.081 0.649,-0.049 0.664,-0.036C0.675,-0.026 0.691,-0.02 0.711,-0.018L0.711,-0L0.391,-0L0.391,-0.018L0.404,-0.018C0.43,-0.018 0.448,-0.022 0.458,-0.029C0.465,-0.034 0.469,-0.042 0.469,-0.051C0.469,-0.057 0.468,-0.063 0.466,-0.069C0.465,-0.072 0.46,-0.084 0.451,-0.106L0.416,-0.188ZM0.399,-0.225L0.301,-0.453L0.199,-0.225L0.399,-0.225Z" style="fill:rgb(138,147,64);fill-rule:nonzero;"/>
        </g>
        <g transform="matrix(115.367,14.5445,-14.2593,113.105,875.438,1870.27)">
            <path d="M0.667,-0.677L0.667,-0.448L0.648,-0.448C0.634,-0.508 0.607,-0.554 0.568,-0.585C0.529,-0.617 0.485,-0.633 0.436,-0.633C0.394,-0.633 0.356,-0.621 0.322,-0.598C0.287,-0.574 0.262,-0.543 0.246,-0.504C0.226,-0.455 0.215,-0.401 0.215,-0.34C0.215,-0.281 0.223,-0.227 0.238,-0.178C0.253,-0.13 0.276,-0.093 0.308,-0.068C0.34,-0.043 0.381,-0.031 0.432,-0.031C0.474,-0.031 0.512,-0.04 0.547,-0.058C0.581,-0.076 0.618,-0.108 0.656,-0.152L0.656,-0.095C0.619,-0.056 0.58,-0.028 0.54,-0.011C0.5,0.006 0.453,0.015 0.399,0.015C0.329,0.015 0.266,0.001 0.211,-0.027C0.156,-0.056 0.114,-0.096 0.084,-0.149C0.054,-0.202 0.04,-0.259 0.04,-0.319C0.04,-0.382 0.056,-0.442 0.089,-0.499C0.122,-0.555 0.167,-0.599 0.223,-0.63C0.279,-0.662 0.339,-0.677 0.402,-0.677C0.448,-0.677 0.498,-0.667 0.549,-0.647C0.579,-0.635 0.598,-0.629 0.606,-0.629C0.617,-0.629 0.626,-0.633 0.634,-0.641C0.641,-0.649 0.646,-0.661 0.648,-0.677L0.667,-0.677Z" style="fill:rgb(138,147,64);fill-rule:nonzero;"/>
        </g>
        <g transform="matrix(116.254,2.46559,-2.41725,113.974,960.09,1881)">
            <path d="M0.417,-0.409L0.649,-0.117C0.682,-0.076 0.711,-0.048 0.734,-0.034C0.752,-0.023 0.77,-0.018 0.789,-0.018L0.789,-0L0.444,-0L0.444,-0.018C0.466,-0.02 0.48,-0.023 0.487,-0.028C0.493,-0.033 0.496,-0.039 0.496,-0.046C0.496,-0.06 0.481,-0.086 0.451,-0.124L0.299,-0.314L0.275,-0.294L0.275,-0.113C0.275,-0.079 0.277,-0.057 0.281,-0.049C0.285,-0.04 0.292,-0.033 0.303,-0.027C0.314,-0.021 0.332,-0.018 0.356,-0.018L0.356,-0L0.022,-0L0.022,-0.018L0.044,-0.018C0.064,-0.018 0.079,-0.021 0.091,-0.028C0.099,-0.033 0.106,-0.041 0.11,-0.052C0.114,-0.06 0.116,-0.08 0.116,-0.113L0.116,-0.549C0.116,-0.583 0.114,-0.604 0.11,-0.612C0.107,-0.621 0.1,-0.628 0.089,-0.635C0.078,-0.641 0.063,-0.644 0.044,-0.644L0.022,-0.644L0.022,-0.662L0.352,-0.662L0.352,-0.644C0.33,-0.644 0.313,-0.641 0.301,-0.634C0.292,-0.63 0.286,-0.622 0.281,-0.611C0.277,-0.603 0.275,-0.582 0.275,-0.549L0.275,-0.343L0.521,-0.542C0.555,-0.569 0.572,-0.591 0.572,-0.608C0.572,-0.62 0.565,-0.63 0.551,-0.637C0.544,-0.641 0.526,-0.643 0.498,-0.644L0.498,-0.662L0.756,-0.662L0.756,-0.644C0.733,-0.642 0.715,-0.638 0.701,-0.632C0.688,-0.625 0.658,-0.602 0.61,-0.564L0.417,-0.409Z" style="fill:rgb(138,147,64);fill-rule:nonzero;"/>
        </g>
        <g transform="matrix(115.65,-12.0832,11.8463,113.383,1082,1881.03)">
            <path d="M0.27,-0.3L0.27,-0.116C0.27,-0.08 0.272,-0.058 0.277,-0.049C0.281,-0.039 0.289,-0.032 0.3,-0.026C0.311,-0.021 0.332,-0.018 0.362,-0.018L0.362,-0L0.025,-0L0.025,-0.018C0.056,-0.018 0.077,-0.021 0.088,-0.027C0.099,-0.032 0.106,-0.04 0.111,-0.049C0.115,-0.058 0.117,-0.08 0.117,-0.116L0.117,-0.546C0.117,-0.582 0.115,-0.604 0.111,-0.614C0.106,-0.623 0.098,-0.63 0.087,-0.636C0.076,-0.641 0.056,-0.644 0.025,-0.644L0.025,-0.662L0.314,-0.662C0.409,-0.662 0.477,-0.645 0.519,-0.611C0.56,-0.577 0.581,-0.535 0.581,-0.484C0.581,-0.441 0.567,-0.405 0.541,-0.374C0.514,-0.343 0.477,-0.323 0.43,-0.312C0.399,-0.304 0.345,-0.3 0.27,-0.3ZM0.27,-0.624L0.27,-0.338C0.281,-0.337 0.289,-0.337 0.294,-0.337C0.334,-0.337 0.365,-0.349 0.386,-0.372C0.408,-0.396 0.418,-0.432 0.418,-0.482C0.418,-0.531 0.408,-0.567 0.386,-0.59C0.365,-0.613 0.333,-0.624 0.29,-0.624L0.27,-0.624Z" style="fill:rgb(138,147,64);fill-rule:nonzero;"/>
        </g>
        <g transform="matrix(114.304,-21.345,20.9265,112.063,1145.19,1874.91)">
            <path d="M0.416,-0.188L0.182,-0.188L0.154,-0.124C0.145,-0.103 0.141,-0.085 0.141,-0.071C0.141,-0.052 0.148,-0.039 0.163,-0.03C0.172,-0.025 0.194,-0.021 0.228,-0.018L0.228,-0L0.008,-0L0.008,-0.018C0.032,-0.022 0.051,-0.031 0.066,-0.048C0.082,-0.064 0.101,-0.097 0.123,-0.147L0.36,-0.676L0.369,-0.676L0.608,-0.133C0.631,-0.081 0.649,-0.049 0.664,-0.036C0.675,-0.026 0.691,-0.02 0.711,-0.018L0.711,-0L0.391,-0L0.391,-0.018L0.404,-0.018C0.43,-0.018 0.448,-0.022 0.458,-0.029C0.465,-0.034 0.469,-0.042 0.469,-0.051C0.469,-0.057 0.468,-0.063 0.466,-0.069C0.465,-0.072 0.46,-0.084 0.451,-0.106L0.416,-0.188ZM0.399,-0.225L0.301,-0.453L0.199,-0.225L0.399,-0.225Z" style="fill:rgb(138,147,64);fill-rule:nonzero;"/>
        </g>
        <g transform="matrix(112.038,-31.1215,30.5113,109.841,1218.52,1861.55)">
            <path d="M0.711,-0.662L0.711,-0.644C0.689,-0.641 0.672,-0.635 0.661,-0.625C0.644,-0.611 0.619,-0.574 0.583,-0.513L0.44,-0.273L0.44,-0.113C0.44,-0.079 0.442,-0.058 0.445,-0.05C0.449,-0.041 0.456,-0.034 0.467,-0.028C0.477,-0.021 0.491,-0.018 0.509,-0.018L0.546,-0.018L0.546,-0L0.174,-0L0.174,-0.018L0.209,-0.018C0.229,-0.018 0.244,-0.021 0.255,-0.028C0.264,-0.033 0.271,-0.041 0.275,-0.052C0.279,-0.06 0.281,-0.08 0.281,-0.113L0.281,-0.246L0.125,-0.53C0.094,-0.586 0.072,-0.619 0.06,-0.629C0.047,-0.639 0.03,-0.644 0.009,-0.644L0.009,-0.662L0.326,-0.662L0.326,-0.644L0.312,-0.644C0.293,-0.644 0.279,-0.641 0.272,-0.636C0.264,-0.63 0.26,-0.624 0.26,-0.618C0.26,-0.606 0.273,-0.577 0.299,-0.53L0.419,-0.311L0.538,-0.51C0.568,-0.559 0.583,-0.591 0.583,-0.607C0.583,-0.616 0.578,-0.624 0.57,-0.629C0.559,-0.638 0.538,-0.642 0.509,-0.644L0.509,-0.662L0.711,-0.662Z" style="fill:rgb(138,147,64);fill-rule:nonzero;"/>
        </g>
        <g transform="matrix(108.838,-40.9318,40.1292,106.704,1300.53,1838.22)">
            <path d="M0.47,-0.677L0.475,-0.457L0.455,-0.457C0.446,-0.512 0.422,-0.556 0.385,-0.59C0.349,-0.624 0.309,-0.641 0.266,-0.641C0.232,-0.641 0.206,-0.632 0.187,-0.614C0.167,-0.596 0.158,-0.576 0.158,-0.553C0.158,-0.538 0.161,-0.525 0.168,-0.514C0.177,-0.498 0.193,-0.483 0.213,-0.468C0.229,-0.458 0.264,-0.438 0.319,-0.411C0.397,-0.373 0.449,-0.337 0.476,-0.303C0.503,-0.269 0.516,-0.231 0.516,-0.187C0.516,-0.132 0.495,-0.084 0.451,-0.044C0.408,-0.004 0.354,0.016 0.287,0.016C0.266,0.016 0.247,0.014 0.228,0.009C0.209,0.005 0.186,-0.003 0.158,-0.015C0.143,-0.021 0.13,-0.024 0.12,-0.024C0.111,-0.024 0.102,-0.021 0.093,-0.015C0.083,-0.008 0.076,0.002 0.07,0.015L0.052,0.015L0.052,-0.235L0.07,-0.235C0.084,-0.165 0.112,-0.111 0.153,-0.074C0.193,-0.037 0.237,-0.019 0.285,-0.019C0.321,-0.019 0.35,-0.028 0.372,-0.048C0.393,-0.068 0.404,-0.091 0.404,-0.118C0.404,-0.133 0.4,-0.148 0.392,-0.163C0.384,-0.178 0.371,-0.192 0.354,-0.205C0.337,-0.218 0.307,-0.235 0.264,-0.256C0.204,-0.286 0.161,-0.311 0.134,-0.332C0.108,-0.353 0.088,-0.376 0.073,-0.402C0.059,-0.428 0.052,-0.456 0.052,-0.487C0.052,-0.54 0.072,-0.584 0.11,-0.622C0.149,-0.659 0.198,-0.677 0.257,-0.677C0.278,-0.677 0.299,-0.675 0.319,-0.669C0.335,-0.666 0.353,-0.658 0.375,-0.648C0.397,-0.637 0.413,-0.632 0.421,-0.632C0.43,-0.632 0.437,-0.634 0.441,-0.64C0.446,-0.645 0.451,-0.657 0.455,-0.677L0.47,-0.677Z" style="fill:rgb(138,147,64);fill-rule:nonzero;"/>
        </g>
        <g transform="matrix(104.01,-51.9896,50.9702,101.971,1389.69,1802.61)">
            <path d="M0.148,-0.332L0.148,-0.349C0.185,-0.36 0.211,-0.37 0.225,-0.379C0.239,-0.388 0.252,-0.403 0.262,-0.422C0.273,-0.441 0.278,-0.46 0.278,-0.479C0.278,-0.507 0.268,-0.53 0.248,-0.549C0.229,-0.568 0.204,-0.578 0.175,-0.578C0.129,-0.578 0.09,-0.554 0.059,-0.506L0.041,-0.512C0.064,-0.567 0.094,-0.607 0.131,-0.635C0.167,-0.662 0.208,-0.676 0.253,-0.676C0.299,-0.676 0.337,-0.662 0.366,-0.634C0.396,-0.606 0.411,-0.573 0.411,-0.536C0.411,-0.511 0.404,-0.488 0.39,-0.465C0.377,-0.442 0.355,-0.423 0.325,-0.405C0.363,-0.387 0.392,-0.364 0.412,-0.337C0.432,-0.309 0.442,-0.275 0.442,-0.234C0.442,-0.165 0.417,-0.107 0.367,-0.058C0.317,-0.01 0.25,0.014 0.167,0.014C0.111,0.014 0.07,0.005 0.044,-0.014C0.025,-0.027 0.016,-0.043 0.016,-0.064C0.016,-0.079 0.021,-0.092 0.032,-0.102C0.043,-0.113 0.055,-0.118 0.069,-0.118C0.08,-0.118 0.09,-0.116 0.1,-0.111C0.105,-0.109 0.123,-0.094 0.155,-0.069C0.187,-0.043 0.216,-0.03 0.244,-0.03C0.268,-0.03 0.289,-0.039 0.306,-0.058C0.323,-0.077 0.332,-0.102 0.332,-0.131C0.332,-0.175 0.316,-0.217 0.285,-0.254C0.254,-0.292 0.208,-0.318 0.148,-0.332Z" style="fill:rgb(138,147,64);fill-rule:nonzero;"/>
        </g>
        <g transform="matrix(97.404,-63.5099,62.2646,95.4941,1467.32,1762.3)">
            <path d="M0.631,-0.662L0.631,-0.483L0.613,-0.483C0.603,-0.524 0.591,-0.554 0.579,-0.572C0.566,-0.59 0.549,-0.604 0.526,-0.615C0.514,-0.621 0.492,-0.624 0.461,-0.624L0.412,-0.624L0.412,-0.113C0.412,-0.079 0.414,-0.058 0.418,-0.05C0.421,-0.041 0.429,-0.034 0.44,-0.028C0.451,-0.021 0.465,-0.018 0.484,-0.018L0.506,-0.018L0.506,-0L0.16,-0L0.16,-0.018L0.182,-0.018C0.201,-0.018 0.216,-0.021 0.228,-0.028C0.236,-0.033 0.243,-0.041 0.248,-0.052C0.252,-0.06 0.253,-0.08 0.253,-0.113L0.253,-0.624L0.206,-0.624C0.161,-0.624 0.129,-0.615 0.108,-0.596C0.08,-0.569 0.062,-0.532 0.055,-0.483L0.036,-0.483L0.036,-0.662L0.631,-0.662Z" style="fill:rgb(138,147,64);fill-rule:nonzero;"/>
        </g>
        <g transform="matrix(90.934,-72.471,71.05,89.151,1531.63,1720.71)">
            <path d="M0.386,-0.671C0.492,-0.675 0.577,-0.645 0.643,-0.579C0.709,-0.514 0.742,-0.432 0.742,-0.333C0.742,-0.25 0.718,-0.176 0.668,-0.112C0.603,-0.027 0.511,0.015 0.393,0.015C0.273,0.015 0.181,-0.025 0.116,-0.106C0.065,-0.17 0.039,-0.245 0.039,-0.333C0.039,-0.431 0.073,-0.513 0.139,-0.579C0.206,-0.644 0.289,-0.675 0.386,-0.671ZM0.392,-0.64C0.332,-0.64 0.285,-0.609 0.254,-0.547C0.228,-0.497 0.215,-0.424 0.215,-0.329C0.215,-0.216 0.235,-0.132 0.275,-0.078C0.303,-0.04 0.341,-0.021 0.391,-0.021C0.425,-0.021 0.453,-0.03 0.475,-0.046C0.504,-0.067 0.526,-0.1 0.542,-0.146C0.558,-0.191 0.566,-0.251 0.566,-0.325C0.566,-0.412 0.558,-0.478 0.542,-0.521C0.525,-0.565 0.504,-0.595 0.479,-0.613C0.454,-0.631 0.425,-0.64 0.392,-0.64Z" style="fill:rgb(138,147,64);fill-rule:nonzero;"/>
        </g>
        <g transform="matrix(81.6543,-82.7866,81.1633,80.0532,1625.1,1642.37)">
            <path d="M0.414,-0L0.024,-0L0.024,-0.011C0.144,-0.153 0.216,-0.249 0.242,-0.298C0.267,-0.347 0.28,-0.395 0.28,-0.442C0.28,-0.476 0.27,-0.504 0.249,-0.527C0.227,-0.55 0.201,-0.561 0.171,-0.561C0.121,-0.561 0.082,-0.536 0.054,-0.486L0.036,-0.492C0.054,-0.555 0.08,-0.601 0.116,-0.631C0.152,-0.661 0.193,-0.676 0.24,-0.676C0.274,-0.676 0.304,-0.668 0.332,-0.652C0.36,-0.637 0.381,-0.615 0.397,-0.588C0.413,-0.561 0.42,-0.535 0.42,-0.512C0.42,-0.468 0.408,-0.424 0.384,-0.38C0.351,-0.32 0.28,-0.236 0.169,-0.128L0.312,-0.128C0.347,-0.128 0.37,-0.129 0.381,-0.132C0.391,-0.135 0.4,-0.14 0.407,-0.147C0.414,-0.154 0.423,-0.169 0.434,-0.191L0.451,-0.191L0.414,-0Z" style="fill:rgb(138,147,64);fill-rule:nonzero;"/>
        </g>
    </g>
    <g transform="matrix(1,0,0,1,-155.509,-1552.58)">
        <g transform="matrix(57.1918,55.3073,-54.2228,56.0704,425.833,1676.58)">
            <path d="M0.013,-0L0.013,-0.018L0.035,-0.018C0.054,-0.018 0.069,-0.021 0.079,-0.027C0.09,-0.033 0.097,-0.041 0.102,-0.052C0.105,-0.059 0.106,-0.079 0.106,-0.113L0.106,-0.549C0.106,-0.583 0.105,-0.604 0.101,-0.612C0.097,-0.621 0.09,-0.628 0.079,-0.635C0.068,-0.641 0.054,-0.644 0.035,-0.644L0.013,-0.644L0.013,-0.662L0.31,-0.662C0.389,-0.662 0.452,-0.651 0.5,-0.63C0.559,-0.604 0.604,-0.564 0.635,-0.51C0.665,-0.457 0.68,-0.396 0.68,-0.329C0.68,-0.283 0.673,-0.24 0.658,-0.2C0.643,-0.161 0.623,-0.129 0.6,-0.103C0.576,-0.078 0.548,-0.057 0.517,-0.042C0.486,-0.026 0.448,-0.014 0.403,-0.006C0.383,-0.002 0.352,-0 0.31,-0L0.013,-0ZM0.266,-0.625L0.266,-0.108C0.266,-0.081 0.267,-0.064 0.27,-0.058C0.272,-0.051 0.277,-0.047 0.283,-0.043C0.292,-0.039 0.304,-0.036 0.321,-0.036C0.375,-0.036 0.417,-0.055 0.445,-0.092C0.484,-0.142 0.504,-0.22 0.504,-0.325C0.504,-0.41 0.491,-0.478 0.464,-0.529C0.443,-0.569 0.416,-0.596 0.382,-0.61C0.359,-0.62 0.32,-0.625 0.266,-0.625Z" style="fill:rgb(112,145,112);fill-rule:nonzero;"/>
        </g>
        <g transform="matrix(59.8986,52.3636,-51.3369,58.7241,467.195,1716.15)">
            <path d="M0.42,-0.245L0.17,-0.245C0.173,-0.184 0.189,-0.136 0.218,-0.101C0.241,-0.074 0.268,-0.061 0.299,-0.061C0.319,-0.061 0.337,-0.066 0.353,-0.077C0.368,-0.088 0.386,-0.107 0.404,-0.136L0.42,-0.125C0.396,-0.075 0.368,-0.039 0.338,-0.018C0.308,0.003 0.274,0.014 0.234,0.014C0.167,0.014 0.115,-0.012 0.081,-0.064C0.053,-0.106 0.039,-0.159 0.039,-0.221C0.039,-0.297 0.059,-0.358 0.1,-0.403C0.142,-0.448 0.19,-0.47 0.245,-0.47C0.291,-0.47 0.331,-0.451 0.365,-0.413C0.399,-0.375 0.418,-0.319 0.42,-0.245ZM0.3,-0.277C0.3,-0.33 0.297,-0.366 0.292,-0.385C0.286,-0.405 0.277,-0.42 0.265,-0.43C0.258,-0.436 0.249,-0.438 0.238,-0.438C0.221,-0.438 0.207,-0.43 0.196,-0.414C0.177,-0.385 0.167,-0.345 0.167,-0.294L0.167,-0.277L0.3,-0.277Z" style="fill:rgb(112,145,112);fill-rule:nonzero;"/>
        </g>
        <g transform="matrix(61.9301,49.9445,-48.9652,60.7158,493.703,1739.41)">
            <path d="M0.286,-0.067C0.23,-0.018 0.18,0.006 0.136,0.006C0.11,0.006 0.088,-0.002 0.071,-0.019C0.054,-0.036 0.045,-0.058 0.045,-0.083C0.045,-0.118 0.06,-0.15 0.09,-0.177C0.12,-0.205 0.185,-0.242 0.286,-0.289L0.286,-0.334C0.286,-0.369 0.284,-0.391 0.28,-0.4C0.276,-0.409 0.269,-0.416 0.259,-0.423C0.248,-0.43 0.237,-0.433 0.224,-0.433C0.202,-0.433 0.185,-0.428 0.171,-0.419C0.163,-0.413 0.159,-0.406 0.159,-0.398C0.159,-0.392 0.163,-0.383 0.172,-0.373C0.185,-0.359 0.191,-0.346 0.191,-0.333C0.191,-0.317 0.185,-0.303 0.173,-0.292C0.161,-0.281 0.146,-0.275 0.126,-0.275C0.106,-0.275 0.089,-0.281 0.075,-0.293C0.061,-0.306 0.054,-0.32 0.054,-0.337C0.054,-0.36 0.063,-0.383 0.082,-0.404C0.101,-0.425 0.126,-0.442 0.16,-0.453C0.193,-0.465 0.227,-0.47 0.263,-0.47C0.306,-0.47 0.341,-0.461 0.366,-0.443C0.391,-0.424 0.408,-0.404 0.415,-0.383C0.42,-0.369 0.422,-0.338 0.422,-0.289L0.422,-0.111C0.422,-0.09 0.423,-0.077 0.424,-0.072C0.426,-0.067 0.428,-0.063 0.432,-0.06C0.435,-0.057 0.439,-0.056 0.443,-0.056C0.451,-0.056 0.46,-0.062 0.469,-0.074L0.483,-0.063C0.467,-0.038 0.45,-0.021 0.433,-0.01C0.415,0.001 0.396,0.006 0.374,0.006C0.347,0.006 0.327,0 0.313,-0.012C0.298,-0.024 0.289,-0.043 0.286,-0.067ZM0.286,-0.103L0.286,-0.256C0.246,-0.233 0.217,-0.208 0.198,-0.182C0.185,-0.164 0.179,-0.146 0.179,-0.128C0.179,-0.113 0.184,-0.1 0.195,-0.089C0.203,-0.08 0.214,-0.076 0.229,-0.076C0.245,-0.076 0.264,-0.085 0.286,-0.103Z" style="fill:rgb(112,145,112);fill-rule:nonzero;"/>
        </g>
        <g transform="matrix(63.4751,47.9656,-47.0251,62.2305,524.52,1764.11)">
            <path d="M0.212,-0.662L0.212,-0.095C0.212,-0.063 0.216,-0.042 0.224,-0.033C0.231,-0.024 0.246,-0.019 0.268,-0.018L0.268,-0L0.021,-0L0.021,-0.018C0.041,-0.018 0.056,-0.024 0.066,-0.035C0.072,-0.043 0.076,-0.063 0.076,-0.095L0.076,-0.567C0.076,-0.599 0.072,-0.62 0.064,-0.629C0.057,-0.638 0.042,-0.643 0.021,-0.644L0.021,-0.662L0.212,-0.662Z" style="fill:rgb(112,145,112);fill-rule:nonzero;"/>
        </g>
        <g transform="matrix(64.8865,46.0384,-45.1357,63.6142,542.012,1777.46)">
            <path d="M0.42,-0.245L0.17,-0.245C0.173,-0.184 0.189,-0.136 0.218,-0.101C0.241,-0.074 0.268,-0.061 0.299,-0.061C0.319,-0.061 0.337,-0.066 0.353,-0.077C0.368,-0.088 0.386,-0.107 0.404,-0.136L0.42,-0.125C0.396,-0.075 0.368,-0.039 0.338,-0.018C0.308,0.003 0.274,0.014 0.234,0.014C0.167,0.014 0.115,-0.012 0.081,-0.064C0.053,-0.106 0.039,-0.159 0.039,-0.221C0.039,-0.297 0.059,-0.358 0.1,-0.403C0.142,-0.448 0.19,-0.47 0.245,-0.47C0.291,-0.47 0.331,-0.451 0.365,-0.413C0.399,-0.375 0.418,-0.319 0.42,-0.245ZM0.3,-0.277C0.3,-0.33 0.297,-0.366 0.292,-0.385C0.286,-0.405 0.277,-0.42 0.265,-0.43C0.258,-0.436 0.249,-0.438 0.238,-0.438C0.221,-0.438 0.207,-0.43 0.196,-0.414C0.177,-0.385 0.167,-0.345 0.167,-0.294L0.167,-0.277L0.3,-0.277Z" style="fill:rgb(112,145,112);fill-rule:nonzero;"/>
        </g>
        <g transform="matrix(66.5549,43.5917,-42.737,65.2499,570.732,1797.85)">
            <path d="M0.223,-0.457L0.223,-0.353C0.253,-0.4 0.28,-0.432 0.303,-0.447C0.326,-0.462 0.347,-0.47 0.369,-0.47C0.387,-0.47 0.401,-0.465 0.412,-0.453C0.423,-0.442 0.429,-0.426 0.429,-0.406C0.429,-0.384 0.423,-0.367 0.413,-0.355C0.402,-0.343 0.389,-0.337 0.375,-0.337C0.357,-0.337 0.342,-0.342 0.33,-0.354C0.317,-0.365 0.309,-0.371 0.307,-0.372C0.304,-0.374 0.3,-0.375 0.296,-0.375C0.286,-0.375 0.278,-0.371 0.269,-0.364C0.256,-0.353 0.246,-0.337 0.239,-0.317C0.228,-0.285 0.223,-0.25 0.223,-0.212L0.223,-0.107L0.224,-0.08C0.224,-0.062 0.225,-0.05 0.227,-0.044C0.231,-0.036 0.237,-0.029 0.244,-0.025C0.252,-0.021 0.265,-0.019 0.283,-0.018L0.283,-0L0.037,-0L0.037,-0.018C0.056,-0.019 0.07,-0.025 0.077,-0.034C0.084,-0.043 0.087,-0.068 0.087,-0.107L0.087,-0.36C0.087,-0.386 0.086,-0.403 0.083,-0.41C0.08,-0.419 0.076,-0.425 0.069,-0.43C0.063,-0.434 0.052,-0.437 0.037,-0.438L0.037,-0.457L0.223,-0.457Z" style="fill:rgb(112,145,112);fill-rule:nonzero;"/>
        </g>
        <g transform="matrix(69.5103,38.7055,-37.9466,68.1473,615.521,1827.09)">
            <path d="M0.223,-0.457L0.223,-0.396C0.248,-0.424 0.271,-0.443 0.293,-0.454C0.314,-0.465 0.337,-0.47 0.363,-0.47C0.392,-0.47 0.417,-0.463 0.437,-0.45C0.456,-0.436 0.472,-0.415 0.482,-0.387C0.508,-0.417 0.533,-0.438 0.557,-0.451C0.581,-0.464 0.606,-0.47 0.632,-0.47C0.664,-0.47 0.689,-0.463 0.708,-0.448C0.726,-0.434 0.74,-0.416 0.747,-0.393C0.754,-0.371 0.758,-0.335 0.758,-0.287L0.758,-0.1C0.758,-0.064 0.761,-0.043 0.767,-0.034C0.774,-0.026 0.787,-0.02 0.807,-0.018L0.807,-0L0.571,-0L0.571,-0.018C0.59,-0.019 0.604,-0.026 0.612,-0.039C0.618,-0.048 0.621,-0.068 0.621,-0.1L0.621,-0.296C0.621,-0.337 0.619,-0.362 0.616,-0.374C0.613,-0.385 0.608,-0.393 0.601,-0.398C0.594,-0.404 0.586,-0.406 0.576,-0.406C0.562,-0.406 0.548,-0.401 0.534,-0.391C0.519,-0.381 0.505,-0.365 0.49,-0.345L0.49,-0.1C0.49,-0.067 0.493,-0.046 0.499,-0.038C0.506,-0.026 0.52,-0.019 0.542,-0.018L0.542,-0L0.305,-0L0.305,-0.018C0.318,-0.018 0.328,-0.021 0.335,-0.027C0.343,-0.033 0.347,-0.04 0.35,-0.048C0.352,-0.056 0.354,-0.073 0.354,-0.1L0.354,-0.296C0.354,-0.337 0.352,-0.363 0.349,-0.374C0.345,-0.384 0.34,-0.392 0.332,-0.398C0.325,-0.404 0.316,-0.407 0.308,-0.407C0.295,-0.407 0.283,-0.403 0.272,-0.396C0.257,-0.386 0.24,-0.369 0.223,-0.345L0.223,-0.1C0.223,-0.067 0.226,-0.046 0.233,-0.036C0.239,-0.026 0.252,-0.02 0.272,-0.018L0.272,-0L0.037,-0L0.037,-0.018C0.056,-0.02 0.07,-0.026 0.078,-0.036C0.084,-0.043 0.086,-0.064 0.086,-0.1L0.086,-0.357C0.086,-0.392 0.083,-0.413 0.077,-0.422C0.071,-0.43 0.057,-0.436 0.037,-0.438L0.037,-0.457L0.223,-0.457Z" style="fill:rgb(112,145,112);fill-rule:nonzero;"/>
        </g>
        <g transform="matrix(71.632,34.6214,-33.9426,70.2275,673.447,1858.96)">
            <path d="M0.475,-0.457L0.475,-0.099C0.475,-0.064 0.478,-0.043 0.484,-0.034C0.491,-0.025 0.504,-0.02 0.524,-0.018L0.524,-0L0.338,-0L0.338,-0.061C0.316,-0.035 0.294,-0.016 0.272,-0.004C0.251,0.008 0.226,0.014 0.199,0.014C0.174,0.014 0.151,0.006 0.131,-0.01C0.111,-0.026 0.097,-0.044 0.09,-0.065C0.083,-0.087 0.08,-0.124 0.08,-0.176L0.08,-0.357C0.08,-0.392 0.077,-0.413 0.071,-0.422C0.064,-0.43 0.051,-0.436 0.031,-0.438L0.031,-0.457L0.217,-0.457L0.217,-0.145C0.217,-0.112 0.218,-0.091 0.221,-0.082C0.225,-0.072 0.229,-0.065 0.236,-0.06C0.243,-0.055 0.25,-0.053 0.259,-0.053C0.271,-0.053 0.282,-0.056 0.291,-0.062C0.304,-0.07 0.32,-0.088 0.338,-0.113L0.338,-0.357C0.338,-0.392 0.335,-0.413 0.328,-0.422C0.322,-0.43 0.309,-0.436 0.289,-0.438L0.289,-0.457L0.475,-0.457Z" style="fill:rgb(112,145,112);fill-rule:nonzero;"/>
        </g>
        <g transform="matrix(72.955,31.7389,-31.1166,71.5245,713.118,1877.98)">
            <path d="M0.322,-0.469L0.33,-0.313L0.313,-0.313C0.293,-0.36 0.273,-0.391 0.251,-0.408C0.23,-0.425 0.209,-0.434 0.188,-0.434C0.174,-0.434 0.163,-0.429 0.153,-0.42C0.144,-0.411 0.139,-0.401 0.139,-0.389C0.139,-0.38 0.142,-0.372 0.149,-0.364C0.159,-0.35 0.188,-0.328 0.236,-0.295C0.284,-0.263 0.316,-0.235 0.331,-0.213C0.346,-0.19 0.354,-0.165 0.354,-0.137C0.354,-0.111 0.347,-0.086 0.334,-0.062C0.322,-0.038 0.304,-0.019 0.281,-0.006C0.258,0.007 0.232,0.014 0.204,0.014C0.182,0.014 0.153,0.007 0.117,-0.007C0.107,-0.01 0.1,-0.012 0.097,-0.012C0.086,-0.012 0.077,-0.004 0.07,0.012L0.054,0.012L0.046,-0.152L0.063,-0.152C0.077,-0.109 0.097,-0.077 0.123,-0.055C0.148,-0.034 0.173,-0.023 0.195,-0.023C0.211,-0.023 0.224,-0.028 0.234,-0.037C0.244,-0.047 0.249,-0.059 0.249,-0.072C0.249,-0.088 0.244,-0.101 0.234,-0.113C0.224,-0.124 0.202,-0.141 0.168,-0.165C0.119,-0.199 0.086,-0.225 0.072,-0.244C0.05,-0.27 0.04,-0.3 0.04,-0.332C0.04,-0.367 0.052,-0.399 0.076,-0.427C0.1,-0.456 0.135,-0.47 0.181,-0.47C0.206,-0.47 0.23,-0.464 0.253,-0.452C0.262,-0.447 0.269,-0.445 0.274,-0.445C0.28,-0.445 0.285,-0.446 0.289,-0.448C0.292,-0.451 0.298,-0.458 0.306,-0.469L0.322,-0.469Z" style="fill:rgb(112,145,112);fill-rule:nonzero;"/>
        </g>
        <g transform="matrix(73.8877,29.5026,-28.9241,72.4389,741.332,1890.22)">
            <path d="M0.215,-0.624L0.215,-0.457L0.323,-0.457L0.323,-0.408L0.215,-0.408L0.215,-0.126C0.215,-0.1 0.216,-0.083 0.219,-0.075C0.221,-0.068 0.225,-0.062 0.231,-0.057C0.238,-0.052 0.243,-0.05 0.249,-0.05C0.27,-0.05 0.29,-0.066 0.309,-0.098L0.323,-0.087C0.297,-0.025 0.254,0.006 0.195,0.006C0.166,0.006 0.141,-0.002 0.121,-0.018C0.101,-0.034 0.089,-0.052 0.083,-0.072C0.08,-0.083 0.078,-0.113 0.078,-0.162L0.078,-0.408L0.019,-0.408L0.019,-0.425C0.06,-0.454 0.094,-0.485 0.123,-0.517C0.152,-0.549 0.177,-0.584 0.199,-0.624L0.215,-0.624Z" style="fill:rgb(112,145,112);fill-rule:nonzero;"/>
        </g>
        <g transform="matrix(75.2959,25.6966,-25.1927,73.8196,784.308,1906.9)">
            <path d="M0.322,-0.469L0.33,-0.313L0.313,-0.313C0.293,-0.36 0.273,-0.391 0.251,-0.408C0.23,-0.425 0.209,-0.434 0.188,-0.434C0.174,-0.434 0.163,-0.429 0.153,-0.42C0.144,-0.411 0.139,-0.401 0.139,-0.389C0.139,-0.38 0.142,-0.372 0.149,-0.364C0.159,-0.35 0.188,-0.328 0.236,-0.295C0.284,-0.263 0.316,-0.235 0.331,-0.213C0.346,-0.19 0.354,-0.165 0.354,-0.137C0.354,-0.111 0.347,-0.086 0.334,-0.062C0.322,-0.038 0.304,-0.019 0.281,-0.006C0.258,0.007 0.232,0.014 0.204,0.014C0.182,0.014 0.153,0.007 0.117,-0.007C0.107,-0.01 0.1,-0.012 0.097,-0.012C0.086,-0.012 0.077,-0.004 0.07,0.012L0.054,0.012L0.046,-0.152L0.063,-0.152C0.077,-0.109 0.097,-0.077 0.123,-0.055C0.148,-0.034 0.173,-0.023 0.195,-0.023C0.211,-0.023 0.224,-0.028 0.234,-0.037C0.244,-0.047 0.249,-0.059 0.249,-0.072C0.249,-0.088 0.244,-0.101 0.234,-0.113C0.224,-0.124 0.202,-0.141 0.168,-0.165C0.119,-0.199 0.086,-0.225 0.072,-0.244C0.05,-0.27 0.04,-0.3 0.04,-0.332C0.04,-0.367 0.052,-0.399 0.076,-0.427C0.1,-0.456 0.135,-0.47 0.181,-0.47C0.206,-0.47 0.23,-0.464 0.253,-0.452C0.262,-0.447 0.269,-0.445 0.274,-0.445C0.28,-0.445 0.285,-0.446 0.289,-0.448C0.292,-0.451 0.298,-0.458 0.306,-0.469L0.322,-0.469Z" style="fill:rgb(112,145,112);fill-rule:nonzero;"/>
        </g>
        <g transform="matrix(76.0461,23.3835,-22.925,74.555,813.465,1916.82)">
            <path d="M0.215,-0.624L0.215,-0.457L0.323,-0.457L0.323,-0.408L0.215,-0.408L0.215,-0.126C0.215,-0.1 0.216,-0.083 0.219,-0.075C0.221,-0.068 0.225,-0.062 0.231,-0.057C0.238,-0.052 0.243,-0.05 0.249,-0.05C0.27,-0.05 0.29,-0.066 0.309,-0.098L0.323,-0.087C0.297,-0.025 0.254,0.006 0.195,0.006C0.166,0.006 0.141,-0.002 0.121,-0.018C0.101,-0.034 0.089,-0.052 0.083,-0.072C0.08,-0.083 0.078,-0.113 0.078,-0.162L0.078,-0.408L0.019,-0.408L0.019,-0.425C0.06,-0.454 0.094,-0.485 0.123,-0.517C0.152,-0.549 0.177,-0.584 0.199,-0.624L0.215,-0.624Z" style="fill:rgb(112,145,112);fill-rule:nonzero;"/>
        </g>
        <g transform="matrix(76.8329,20.6518,-20.2468,75.3264,838.654,1924.7)">
            <path d="M0.286,-0.067C0.23,-0.018 0.18,0.006 0.136,0.006C0.11,0.006 0.088,-0.002 0.071,-0.019C0.054,-0.036 0.045,-0.058 0.045,-0.083C0.045,-0.118 0.06,-0.15 0.09,-0.177C0.12,-0.205 0.185,-0.242 0.286,-0.289L0.286,-0.334C0.286,-0.369 0.284,-0.391 0.28,-0.4C0.276,-0.409 0.269,-0.416 0.259,-0.423C0.248,-0.43 0.237,-0.433 0.224,-0.433C0.202,-0.433 0.185,-0.428 0.171,-0.419C0.163,-0.413 0.159,-0.406 0.159,-0.398C0.159,-0.392 0.163,-0.383 0.172,-0.373C0.185,-0.359 0.191,-0.346 0.191,-0.333C0.191,-0.317 0.185,-0.303 0.173,-0.292C0.161,-0.281 0.146,-0.275 0.126,-0.275C0.106,-0.275 0.089,-0.281 0.075,-0.293C0.061,-0.306 0.054,-0.32 0.054,-0.337C0.054,-0.36 0.063,-0.383 0.082,-0.404C0.101,-0.425 0.126,-0.442 0.16,-0.453C0.193,-0.465 0.227,-0.47 0.263,-0.47C0.306,-0.47 0.341,-0.461 0.366,-0.443C0.391,-0.424 0.408,-0.404 0.415,-0.383C0.42,-0.369 0.422,-0.338 0.422,-0.289L0.422,-0.111C0.422,-0.09 0.423,-0.077 0.424,-0.072C0.426,-0.067 0.428,-0.063 0.432,-0.06C0.435,-0.057 0.439,-0.056 0.443,-0.056C0.451,-0.056 0.46,-0.062 0.469,-0.074L0.483,-0.063C0.467,-0.038 0.45,-0.021 0.433,-0.01C0.415,0.001 0.396,0.006 0.374,0.006C0.347,0.006 0.327,0 0.313,-0.012C0.298,-0.024 0.289,-0.043 0.286,-0.067ZM0.286,-0.103L0.286,-0.256C0.246,-0.233 0.217,-0.208 0.198,-0.182C0.185,-0.164 0.179,-0.146 0.179,-0.128C0.179,-0.113 0.184,-0.1 0.195,-0.089C0.203,-0.08 0.214,-0.076 0.229,-0.076C0.245,-0.076 0.264,-0.085 0.286,-0.103Z" style="fill:rgb(112,145,112);fill-rule:nonzero;"/>
        </g>
        <g transform="matrix(77.6549,17.3063,-16.9669,76.1323,876.831,1935.03)">
            <path d="M0.22,-0.457L0.22,-0.397C0.244,-0.423 0.266,-0.441 0.288,-0.453C0.309,-0.464 0.332,-0.47 0.357,-0.47C0.387,-0.47 0.411,-0.462 0.431,-0.446C0.45,-0.429 0.463,-0.409 0.47,-0.384C0.475,-0.366 0.478,-0.33 0.478,-0.277L0.478,-0.1C0.478,-0.064 0.481,-0.043 0.487,-0.034C0.493,-0.025 0.507,-0.02 0.527,-0.018L0.527,-0L0.296,-0L0.296,-0.018C0.313,-0.02 0.326,-0.027 0.333,-0.039C0.338,-0.047 0.341,-0.067 0.341,-0.1L0.341,-0.303C0.341,-0.34 0.339,-0.364 0.336,-0.374C0.333,-0.383 0.329,-0.391 0.322,-0.396C0.315,-0.402 0.307,-0.404 0.298,-0.404C0.27,-0.404 0.244,-0.384 0.22,-0.344L0.22,-0.1C0.22,-0.065 0.223,-0.044 0.23,-0.035C0.236,-0.026 0.248,-0.02 0.265,-0.018L0.265,-0L0.034,-0L0.034,-0.018C0.053,-0.02 0.067,-0.026 0.075,-0.036C0.081,-0.043 0.083,-0.064 0.083,-0.1L0.083,-0.357C0.083,-0.392 0.08,-0.413 0.074,-0.422C0.068,-0.43 0.054,-0.436 0.034,-0.438L0.034,-0.457L0.22,-0.457Z" style="fill:rgb(112,145,112);fill-rule:nonzero;"/>
        </g>
        <g transform="matrix(78.3854,13.6208,-13.3538,76.8484,919.939,1944.64)">
            <path d="M0.478,-0.662L0.478,-0.137C0.478,-0.101 0.479,-0.08 0.48,-0.074C0.483,-0.063 0.488,-0.055 0.495,-0.05C0.503,-0.045 0.515,-0.041 0.534,-0.04L0.534,-0.024L0.341,0.014L0.341,-0.059C0.318,-0.031 0.297,-0.012 0.279,-0.001C0.261,0.009 0.241,0.014 0.218,0.014C0.16,0.014 0.113,-0.012 0.08,-0.064C0.052,-0.107 0.039,-0.159 0.039,-0.22C0.039,-0.269 0.047,-0.313 0.064,-0.352C0.081,-0.391 0.104,-0.421 0.134,-0.44C0.163,-0.46 0.195,-0.47 0.229,-0.47C0.25,-0.47 0.27,-0.466 0.287,-0.458C0.304,-0.449 0.322,-0.434 0.341,-0.413L0.341,-0.551C0.341,-0.586 0.339,-0.607 0.336,-0.614C0.333,-0.623 0.327,-0.63 0.319,-0.635C0.311,-0.639 0.296,-0.642 0.275,-0.642L0.275,-0.662L0.478,-0.662ZM0.341,-0.353C0.317,-0.399 0.287,-0.422 0.252,-0.422C0.24,-0.422 0.23,-0.419 0.223,-0.412C0.211,-0.402 0.201,-0.384 0.193,-0.359C0.185,-0.333 0.182,-0.295 0.182,-0.242C0.182,-0.185 0.186,-0.142 0.194,-0.114C0.203,-0.087 0.214,-0.067 0.229,-0.054C0.236,-0.048 0.247,-0.045 0.26,-0.045C0.288,-0.045 0.315,-0.067 0.341,-0.112L0.341,-0.353Z" style="fill:rgb(112,145,112);fill-rule:nonzero;"/>
        </g>
        <g transform="matrix(79.0994,8.54858,-8.38096,77.5484,982.968,1954.87)">
            <path d="M0.249,-0.47C0.289,-0.47 0.326,-0.46 0.36,-0.439C0.394,-0.419 0.42,-0.39 0.438,-0.352C0.455,-0.314 0.464,-0.273 0.464,-0.228C0.464,-0.163 0.448,-0.109 0.415,-0.065C0.375,-0.013 0.32,0.014 0.25,0.014C0.182,0.014 0.129,-0.01 0.092,-0.059C0.055,-0.107 0.036,-0.163 0.036,-0.226C0.036,-0.292 0.055,-0.349 0.093,-0.397C0.131,-0.446 0.183,-0.47 0.249,-0.47ZM0.251,-0.436C0.234,-0.436 0.22,-0.429 0.208,-0.417C0.196,-0.404 0.189,-0.379 0.185,-0.343C0.181,-0.306 0.179,-0.254 0.179,-0.188C0.179,-0.154 0.181,-0.121 0.186,-0.091C0.19,-0.068 0.197,-0.05 0.209,-0.038C0.221,-0.026 0.234,-0.02 0.249,-0.02C0.264,-0.02 0.276,-0.024 0.286,-0.032C0.298,-0.043 0.307,-0.059 0.311,-0.079C0.318,-0.11 0.321,-0.172 0.321,-0.266C0.321,-0.321 0.318,-0.359 0.312,-0.38C0.305,-0.401 0.296,-0.416 0.284,-0.425C0.276,-0.432 0.265,-0.436 0.251,-0.436Z" style="fill:rgb(112,145,112);fill-rule:nonzero;"/>
        </g>
        <g transform="matrix(79.3987,5.06302,-4.96375,77.8419,1022.33,1959.16)">
            <path d="M0.22,-0.457L0.22,-0.397C0.244,-0.423 0.266,-0.441 0.288,-0.453C0.309,-0.464 0.332,-0.47 0.357,-0.47C0.387,-0.47 0.411,-0.462 0.431,-0.446C0.45,-0.429 0.463,-0.409 0.47,-0.384C0.475,-0.366 0.478,-0.33 0.478,-0.277L0.478,-0.1C0.478,-0.064 0.481,-0.043 0.487,-0.034C0.493,-0.025 0.507,-0.02 0.527,-0.018L0.527,-0L0.296,-0L0.296,-0.018C0.313,-0.02 0.326,-0.027 0.333,-0.039C0.338,-0.047 0.341,-0.067 0.341,-0.1L0.341,-0.303C0.341,-0.34 0.339,-0.364 0.336,-0.374C0.333,-0.383 0.329,-0.391 0.322,-0.396C0.315,-0.402 0.307,-0.404 0.298,-0.404C0.27,-0.404 0.244,-0.384 0.22,-0.344L0.22,-0.1C0.22,-0.065 0.223,-0.044 0.23,-0.035C0.236,-0.026 0.248,-0.02 0.265,-0.018L0.265,-0L0.034,-0L0.034,-0.018C0.053,-0.02 0.067,-0.026 0.075,-0.036C0.081,-0.043 0.083,-0.064 0.083,-0.1L0.083,-0.357C0.083,-0.392 0.08,-0.413 0.074,-0.422C0.068,-0.43 0.054,-0.436 0.034,-0.438L0.034,-0.457L0.22,-0.457Z" style="fill:rgb(112,145,112);fill-rule:nonzero;"/>
        </g>
        <g transform="matrix(79.56,0.0236545,-0.0231907,78,1086.05,1962.5)">
            <path d="M0.326,-0.676L0.326,-0.134C0.326,-0.094 0.327,-0.068 0.331,-0.056C0.335,-0.045 0.342,-0.036 0.354,-0.029C0.365,-0.022 0.383,-0.018 0.408,-0.018L0.423,-0.018L0.423,-0L0.075,-0L0.075,-0.018L0.092,-0.018C0.121,-0.018 0.141,-0.021 0.153,-0.028C0.165,-0.034 0.173,-0.043 0.177,-0.055C0.181,-0.066 0.184,-0.093 0.184,-0.134L0.184,-0.478C0.184,-0.508 0.182,-0.527 0.179,-0.535C0.176,-0.543 0.171,-0.549 0.163,-0.554C0.155,-0.56 0.146,-0.563 0.135,-0.563C0.119,-0.563 0.098,-0.557 0.075,-0.547L0.066,-0.564L0.31,-0.676L0.326,-0.676Z" style="fill:rgb(112,145,112);fill-rule:nonzero;"/>
        </g>
        <g transform="matrix(79.4911,-3.30946,3.24457,77.9325,1125.68,1962.49)">
            <path d="M0.177,0.014L0.357,-0.533L0.22,-0.533C0.167,-0.533 0.126,-0.526 0.099,-0.512C0.08,-0.502 0.065,-0.484 0.052,-0.457L0.034,-0.457L0.082,-0.662L0.476,-0.662L0.254,0.014L0.177,0.014Z" style="fill:rgb(112,145,112);fill-rule:nonzero;"/>
        </g>
        <g transform="matrix(79.126,-8.2987,8.13598,77.5745,1184.99,1959.43)">
            <path d="M0.286,-0.067C0.23,-0.018 0.18,0.006 0.136,0.006C0.11,0.006 0.088,-0.002 0.071,-0.019C0.054,-0.036 0.045,-0.058 0.045,-0.083C0.045,-0.118 0.06,-0.15 0.09,-0.177C0.12,-0.205 0.185,-0.242 0.286,-0.289L0.286,-0.334C0.286,-0.369 0.284,-0.391 0.28,-0.4C0.276,-0.409 0.269,-0.416 0.259,-0.423C0.248,-0.43 0.237,-0.433 0.224,-0.433C0.202,-0.433 0.185,-0.428 0.171,-0.419C0.163,-0.413 0.159,-0.406 0.159,-0.398C0.159,-0.392 0.163,-0.383 0.172,-0.373C0.185,-0.359 0.191,-0.346 0.191,-0.333C0.191,-0.317 0.185,-0.303 0.173,-0.292C0.161,-0.281 0.146,-0.275 0.126,-0.275C0.106,-0.275 0.089,-0.281 0.075,-0.293C0.061,-0.306 0.054,-0.32 0.054,-0.337C0.054,-0.36 0.063,-0.383 0.082,-0.404C0.101,-0.425 0.126,-0.442 0.16,-0.453C0.193,-0.465 0.227,-0.47 0.263,-0.47C0.306,-0.47 0.341,-0.461 0.366,-0.443C0.391,-0.424 0.408,-0.404 0.415,-0.383C0.42,-0.369 0.422,-0.338 0.422,-0.289L0.422,-0.111C0.422,-0.09 0.423,-0.077 0.424,-0.072C0.426,-0.067 0.428,-0.063 0.432,-0.06C0.435,-0.057 0.439,-0.056 0.443,-0.056C0.451,-0.056 0.46,-0.062 0.469,-0.074L0.483,-0.063C0.467,-0.038 0.45,-0.021 0.433,-0.01C0.415,0.001 0.396,0.006 0.374,0.006C0.347,0.006 0.327,0 0.313,-0.012C0.298,-0.024 0.289,-0.043 0.286,-0.067ZM0.286,-0.103L0.286,-0.256C0.246,-0.233 0.217,-0.208 0.198,-0.182C0.185,-0.164 0.179,-0.146 0.179,-0.128C0.179,-0.113 0.184,-0.1 0.195,-0.089C0.203,-0.08 0.214,-0.076 0.229,-0.076C0.245,-0.076 0.264,-0.085 0.286,-0.103Z" style="fill:rgb(112,145,112);fill-rule:nonzero;"/>
        </g>
        <g transform="matrix(78.6953,-11.6982,11.4688,77.1522,1224.4,1955.36)">
            <path d="M0.22,-0.457L0.22,-0.397C0.244,-0.423 0.266,-0.441 0.288,-0.453C0.309,-0.464 0.332,-0.47 0.357,-0.47C0.387,-0.47 0.411,-0.462 0.431,-0.446C0.45,-0.429 0.463,-0.409 0.47,-0.384C0.475,-0.366 0.478,-0.33 0.478,-0.277L0.478,-0.1C0.478,-0.064 0.481,-0.043 0.487,-0.034C0.493,-0.025 0.507,-0.02 0.527,-0.018L0.527,-0L0.296,-0L0.296,-0.018C0.313,-0.02 0.326,-0.027 0.333,-0.039C0.338,-0.047 0.341,-0.067 0.341,-0.1L0.341,-0.303C0.341,-0.34 0.339,-0.364 0.336,-0.374C0.333,-0.383 0.329,-0.391 0.322,-0.396C0.315,-0.402 0.307,-0.404 0.298,-0.404C0.27,-0.404 0.244,-0.384 0.22,-0.344L0.22,-0.1C0.22,-0.065 0.223,-0.044 0.23,-0.035C0.236,-0.026 0.248,-0.02 0.265,-0.018L0.265,-0L0.034,-0L0.034,-0.018C0.053,-0.02 0.067,-0.026 0.075,-0.036C0.081,-0.043 0.083,-0.064 0.083,-0.1L0.083,-0.357C0.083,-0.392 0.08,-0.413 0.074,-0.422C0.068,-0.43 0.054,-0.436 0.034,-0.438L0.034,-0.457L0.22,-0.457Z" style="fill:rgb(112,145,112);fill-rule:nonzero;"/>
        </g>
        <g transform="matrix(78.0581,-15.3858,15.0842,76.5276,1267.98,1948.89)">
            <path d="M0.478,-0.662L0.478,-0.137C0.478,-0.101 0.479,-0.08 0.48,-0.074C0.483,-0.063 0.488,-0.055 0.495,-0.05C0.503,-0.045 0.515,-0.041 0.534,-0.04L0.534,-0.024L0.341,0.014L0.341,-0.059C0.318,-0.031 0.297,-0.012 0.279,-0.001C0.261,0.009 0.241,0.014 0.218,0.014C0.16,0.014 0.113,-0.012 0.08,-0.064C0.052,-0.107 0.039,-0.159 0.039,-0.22C0.039,-0.269 0.047,-0.313 0.064,-0.352C0.081,-0.391 0.104,-0.421 0.134,-0.44C0.163,-0.46 0.195,-0.47 0.229,-0.47C0.25,-0.47 0.27,-0.466 0.287,-0.458C0.304,-0.449 0.322,-0.434 0.341,-0.413L0.341,-0.551C0.341,-0.586 0.339,-0.607 0.336,-0.614C0.333,-0.623 0.327,-0.63 0.319,-0.635C0.311,-0.639 0.296,-0.642 0.275,-0.642L0.275,-0.662L0.478,-0.662ZM0.341,-0.353C0.317,-0.399 0.287,-0.422 0.252,-0.422C0.24,-0.422 0.23,-0.419 0.223,-0.412C0.211,-0.402 0.201,-0.384 0.193,-0.359C0.185,-0.333 0.182,-0.295 0.182,-0.242C0.182,-0.185 0.186,-0.142 0.194,-0.114C0.203,-0.087 0.214,-0.067 0.229,-0.054C0.236,-0.048 0.247,-0.045 0.26,-0.045C0.288,-0.045 0.315,-0.067 0.341,-0.112L0.341,-0.353Z" style="fill:rgb(112,145,112);fill-rule:nonzero;"/>
        </g>
        <g transform="matrix(76.6014,-21.4948,21.0733,75.0994,1330.57,1936.21)">
            <path d="M0.223,-0.457L0.223,-0.396C0.248,-0.424 0.271,-0.443 0.293,-0.454C0.314,-0.465 0.337,-0.47 0.363,-0.47C0.392,-0.47 0.417,-0.463 0.437,-0.45C0.456,-0.436 0.472,-0.415 0.482,-0.387C0.508,-0.417 0.533,-0.438 0.557,-0.451C0.581,-0.464 0.606,-0.47 0.632,-0.47C0.664,-0.47 0.689,-0.463 0.708,-0.448C0.726,-0.434 0.74,-0.416 0.747,-0.393C0.754,-0.371 0.758,-0.335 0.758,-0.287L0.758,-0.1C0.758,-0.064 0.761,-0.043 0.767,-0.034C0.774,-0.026 0.787,-0.02 0.807,-0.018L0.807,-0L0.571,-0L0.571,-0.018C0.59,-0.019 0.604,-0.026 0.612,-0.039C0.618,-0.048 0.621,-0.068 0.621,-0.1L0.621,-0.296C0.621,-0.337 0.619,-0.362 0.616,-0.374C0.613,-0.385 0.608,-0.393 0.601,-0.398C0.594,-0.404 0.586,-0.406 0.576,-0.406C0.562,-0.406 0.548,-0.401 0.534,-0.391C0.519,-0.381 0.505,-0.365 0.49,-0.345L0.49,-0.1C0.49,-0.067 0.493,-0.046 0.499,-0.038C0.506,-0.026 0.52,-0.019 0.542,-0.018L0.542,-0L0.305,-0L0.305,-0.018C0.318,-0.018 0.328,-0.021 0.335,-0.027C0.343,-0.033 0.347,-0.04 0.35,-0.048C0.352,-0.056 0.354,-0.073 0.354,-0.1L0.354,-0.296C0.354,-0.337 0.352,-0.363 0.349,-0.374C0.345,-0.384 0.34,-0.392 0.332,-0.398C0.325,-0.404 0.316,-0.407 0.308,-0.407C0.295,-0.407 0.283,-0.403 0.272,-0.396C0.257,-0.386 0.24,-0.369 0.223,-0.345L0.223,-0.1C0.223,-0.067 0.226,-0.046 0.233,-0.036C0.239,-0.026 0.252,-0.02 0.272,-0.018L0.272,-0L0.037,-0L0.037,-0.018C0.056,-0.02 0.07,-0.026 0.078,-0.036C0.084,-0.043 0.086,-0.064 0.086,-0.1L0.086,-0.357C0.086,-0.392 0.083,-0.413 0.077,-0.422C0.071,-0.43 0.057,-0.436 0.037,-0.438L0.037,-0.457L0.223,-0.457Z" style="fill:rgb(112,145,112);fill-rule:nonzero;"/>
        </g>
        <g transform="matrix(75.2212,-25.9145,25.4064,73.7463,1394.16,1918.01)">
            <path d="M0.475,-0.457L0.475,-0.099C0.475,-0.064 0.478,-0.043 0.484,-0.034C0.491,-0.025 0.504,-0.02 0.524,-0.018L0.524,-0L0.338,-0L0.338,-0.061C0.316,-0.035 0.294,-0.016 0.272,-0.004C0.251,0.008 0.226,0.014 0.199,0.014C0.174,0.014 0.151,0.006 0.131,-0.01C0.111,-0.026 0.097,-0.044 0.09,-0.065C0.083,-0.087 0.08,-0.124 0.08,-0.176L0.08,-0.357C0.08,-0.392 0.077,-0.413 0.071,-0.422C0.064,-0.43 0.051,-0.436 0.031,-0.438L0.031,-0.457L0.217,-0.457L0.217,-0.145C0.217,-0.112 0.218,-0.091 0.221,-0.082C0.225,-0.072 0.229,-0.065 0.236,-0.06C0.243,-0.055 0.25,-0.053 0.259,-0.053C0.271,-0.053 0.282,-0.056 0.291,-0.062C0.304,-0.07 0.32,-0.088 0.338,-0.113L0.338,-0.357C0.338,-0.392 0.335,-0.413 0.328,-0.422C0.322,-0.43 0.309,-0.436 0.289,-0.438L0.289,-0.457L0.475,-0.457Z" style="fill:rgb(112,145,112);fill-rule:nonzero;"/>
        </g>
        <g transform="matrix(74.1232,-28.9058,28.339,72.6698,1435.77,1903.52)">
            <path d="M0.322,-0.469L0.33,-0.313L0.313,-0.313C0.293,-0.36 0.273,-0.391 0.251,-0.408C0.23,-0.425 0.209,-0.434 0.188,-0.434C0.174,-0.434 0.163,-0.429 0.153,-0.42C0.144,-0.411 0.139,-0.401 0.139,-0.389C0.139,-0.38 0.142,-0.372 0.149,-0.364C0.159,-0.35 0.188,-0.328 0.236,-0.295C0.284,-0.263 0.316,-0.235 0.331,-0.213C0.346,-0.19 0.354,-0.165 0.354,-0.137C0.354,-0.111 0.347,-0.086 0.334,-0.062C0.322,-0.038 0.304,-0.019 0.281,-0.006C0.258,0.007 0.232,0.014 0.204,0.014C0.182,0.014 0.153,0.007 0.117,-0.007C0.107,-0.01 0.1,-0.012 0.097,-0.012C0.086,-0.012 0.077,-0.004 0.07,0.012L0.054,0.012L0.046,-0.152L0.063,-0.152C0.077,-0.109 0.097,-0.077 0.123,-0.055C0.148,-0.034 0.173,-0.023 0.195,-0.023C0.211,-0.023 0.224,-0.028 0.234,-0.037C0.244,-0.047 0.249,-0.059 0.249,-0.072C0.249,-0.088 0.244,-0.101 0.234,-0.113C0.224,-0.124 0.202,-0.141 0.168,-0.165C0.119,-0.199 0.086,-0.225 0.072,-0.244C0.05,-0.27 0.04,-0.3 0.04,-0.332C0.04,-0.367 0.052,-0.399 0.076,-0.427C0.1,-0.456 0.135,-0.47 0.181,-0.47C0.206,-0.47 0.23,-0.464 0.253,-0.452C0.262,-0.447 0.269,-0.445 0.274,-0.445C0.28,-0.445 0.285,-0.446 0.289,-0.448C0.292,-0.451 0.298,-0.458 0.306,-0.469L0.322,-0.469Z" style="fill:rgb(112,145,112);fill-rule:nonzero;"/>
        </g>
        <g transform="matrix(73.2077,-31.1518,30.5409,71.7722,1464.43,1892.31)">
            <path d="M0.215,-0.624L0.215,-0.457L0.323,-0.457L0.323,-0.408L0.215,-0.408L0.215,-0.126C0.215,-0.1 0.216,-0.083 0.219,-0.075C0.221,-0.068 0.225,-0.062 0.231,-0.057C0.238,-0.052 0.243,-0.05 0.249,-0.05C0.27,-0.05 0.29,-0.066 0.309,-0.098L0.323,-0.087C0.297,-0.025 0.254,0.006 0.195,0.006C0.166,0.006 0.141,-0.002 0.121,-0.018C0.101,-0.034 0.089,-0.052 0.083,-0.072C0.08,-0.083 0.078,-0.113 0.078,-0.162L0.078,-0.408L0.019,-0.408L0.019,-0.425C0.06,-0.454 0.094,-0.485 0.123,-0.517C0.152,-0.549 0.177,-0.584 0.199,-0.624L0.215,-0.624Z" style="fill:rgb(112,145,112);fill-rule:nonzero;"/>
        </g>
        <g transform="matrix(71.266,-35.3688,34.6753,69.8686,1506.82,1873.94)">
            <path d="M0.478,-0.662L0.478,-0.137C0.478,-0.101 0.479,-0.08 0.48,-0.074C0.483,-0.063 0.488,-0.055 0.495,-0.05C0.503,-0.045 0.515,-0.041 0.534,-0.04L0.534,-0.024L0.341,0.014L0.341,-0.059C0.318,-0.031 0.297,-0.012 0.279,-0.001C0.261,0.009 0.241,0.014 0.218,0.014C0.16,0.014 0.113,-0.012 0.08,-0.064C0.052,-0.107 0.039,-0.159 0.039,-0.22C0.039,-0.269 0.047,-0.313 0.064,-0.352C0.081,-0.391 0.104,-0.421 0.134,-0.44C0.163,-0.46 0.195,-0.47 0.229,-0.47C0.25,-0.47 0.27,-0.466 0.287,-0.458C0.304,-0.449 0.322,-0.434 0.341,-0.413L0.341,-0.551C0.341,-0.586 0.339,-0.607 0.336,-0.614C0.333,-0.623 0.327,-0.63 0.319,-0.635C0.311,-0.639 0.296,-0.642 0.275,-0.642L0.275,-0.662L0.478,-0.662ZM0.341,-0.353C0.317,-0.399 0.287,-0.422 0.252,-0.422C0.24,-0.422 0.23,-0.419 0.223,-0.412C0.211,-0.402 0.201,-0.384 0.193,-0.359C0.185,-0.333 0.182,-0.295 0.182,-0.242C0.182,-0.185 0.186,-0.142 0.194,-0.114C0.203,-0.087 0.214,-0.067 0.229,-0.054C0.236,-0.048 0.247,-0.045 0.26,-0.045C0.288,-0.045 0.315,-0.067 0.341,-0.112L0.341,-0.353Z" style="fill:rgb(112,145,112);fill-rule:nonzero;"/>
        </g>
        <g transform="matrix(69.7143,-38.3368,37.5851,68.3473,1546.26,1854.28)">
            <path d="M0.223,-0.457L0.223,-0.353C0.253,-0.4 0.28,-0.432 0.303,-0.447C0.326,-0.462 0.347,-0.47 0.369,-0.47C0.387,-0.47 0.401,-0.465 0.412,-0.453C0.423,-0.442 0.429,-0.426 0.429,-0.406C0.429,-0.384 0.423,-0.367 0.413,-0.355C0.402,-0.343 0.389,-0.337 0.375,-0.337C0.357,-0.337 0.342,-0.342 0.33,-0.354C0.317,-0.365 0.309,-0.371 0.307,-0.372C0.304,-0.374 0.3,-0.375 0.296,-0.375C0.286,-0.375 0.278,-0.371 0.269,-0.364C0.256,-0.353 0.246,-0.337 0.239,-0.317C0.228,-0.285 0.223,-0.25 0.223,-0.212L0.223,-0.107L0.224,-0.08C0.224,-0.062 0.225,-0.05 0.227,-0.044C0.231,-0.036 0.237,-0.029 0.244,-0.025C0.252,-0.021 0.265,-0.019 0.283,-0.018L0.283,-0L0.037,-0L0.037,-0.018C0.056,-0.019 0.07,-0.025 0.077,-0.034C0.084,-0.043 0.087,-0.068 0.087,-0.107L0.087,-0.36C0.087,-0.386 0.086,-0.403 0.083,-0.41C0.08,-0.419 0.076,-0.425 0.069,-0.43C0.063,-0.434 0.052,-0.437 0.037,-0.438L0.037,-0.457L0.223,-0.457Z" style="fill:rgb(112,145,112);fill-rule:nonzero;"/>
        </g>
        <g transform="matrix(68.1436,-41.0638,40.2587,66.8075,1577.06,1837.43)">
            <path d="M0.286,-0.067C0.23,-0.018 0.18,0.006 0.136,0.006C0.11,0.006 0.088,-0.002 0.071,-0.019C0.054,-0.036 0.045,-0.058 0.045,-0.083C0.045,-0.118 0.06,-0.15 0.09,-0.177C0.12,-0.205 0.185,-0.242 0.286,-0.289L0.286,-0.334C0.286,-0.369 0.284,-0.391 0.28,-0.4C0.276,-0.409 0.269,-0.416 0.259,-0.423C0.248,-0.43 0.237,-0.433 0.224,-0.433C0.202,-0.433 0.185,-0.428 0.171,-0.419C0.163,-0.413 0.159,-0.406 0.159,-0.398C0.159,-0.392 0.163,-0.383 0.172,-0.373C0.185,-0.359 0.191,-0.346 0.191,-0.333C0.191,-0.317 0.185,-0.303 0.173,-0.292C0.161,-0.281 0.146,-0.275 0.126,-0.275C0.106,-0.275 0.089,-0.281 0.075,-0.293C0.061,-0.306 0.054,-0.32 0.054,-0.337C0.054,-0.36 0.063,-0.383 0.082,-0.404C0.101,-0.425 0.126,-0.442 0.16,-0.453C0.193,-0.465 0.227,-0.47 0.263,-0.47C0.306,-0.47 0.341,-0.461 0.366,-0.443C0.391,-0.424 0.408,-0.404 0.415,-0.383C0.42,-0.369 0.422,-0.338 0.422,-0.289L0.422,-0.111C0.422,-0.09 0.423,-0.077 0.424,-0.072C0.426,-0.067 0.428,-0.063 0.432,-0.06C0.435,-0.057 0.439,-0.056 0.443,-0.056C0.451,-0.056 0.46,-0.062 0.469,-0.074L0.483,-0.063C0.467,-0.038 0.45,-0.021 0.433,-0.01C0.415,0.001 0.396,0.006 0.374,0.006C0.347,0.006 0.327,0 0.313,-0.012C0.298,-0.024 0.289,-0.043 0.286,-0.067ZM0.286,-0.103L0.286,-0.256C0.246,-0.233 0.217,-0.208 0.198,-0.182C0.185,-0.164 0.179,-0.146 0.179,-0.128C0.179,-0.113 0.184,-0.1 0.195,-0.089C0.203,-0.08 0.214,-0.076 0.229,-0.076C0.245,-0.076 0.264,-0.085 0.286,-0.103Z" style="fill:rgb(112,145,112);fill-rule:nonzero;"/>
        </g>
        <g transform="matrix(66.0264,-44.3882,43.5178,64.7318,1611.15,1817.14)">
            <path d="M0.486,0.014L0.361,-0.321L0.239,0.014L0.213,0.014L0.092,-0.317C0.074,-0.368 0.058,-0.401 0.045,-0.416C0.037,-0.426 0.025,-0.434 0.008,-0.438L0.008,-0.457L0.239,-0.457L0.239,-0.438C0.223,-0.438 0.212,-0.436 0.207,-0.432C0.201,-0.427 0.198,-0.422 0.198,-0.416C0.198,-0.41 0.203,-0.394 0.213,-0.366L0.28,-0.188L0.345,-0.366L0.34,-0.378C0.33,-0.402 0.322,-0.418 0.314,-0.425C0.307,-0.431 0.296,-0.436 0.28,-0.438L0.28,-0.457L0.514,-0.457L0.514,-0.438C0.496,-0.438 0.484,-0.435 0.479,-0.431C0.475,-0.427 0.472,-0.421 0.472,-0.414C0.472,-0.406 0.477,-0.391 0.486,-0.366L0.551,-0.188L0.609,-0.352C0.618,-0.375 0.622,-0.391 0.622,-0.4C0.622,-0.413 0.619,-0.422 0.613,-0.428C0.607,-0.434 0.595,-0.437 0.577,-0.438L0.577,-0.457L0.712,-0.457L0.712,-0.438C0.697,-0.437 0.685,-0.431 0.676,-0.423C0.667,-0.414 0.656,-0.389 0.642,-0.349L0.514,0.014L0.486,0.014Z" style="fill:rgb(112,145,112);fill-rule:nonzero;"/>
        </g>
        <g transform="matrix(62.988,-48.6036,47.6506,61.7529,1674.45,1773.19)">
            <path d="M0.215,-0.624L0.215,-0.457L0.323,-0.457L0.323,-0.408L0.215,-0.408L0.215,-0.126C0.215,-0.1 0.216,-0.083 0.219,-0.075C0.221,-0.068 0.225,-0.062 0.231,-0.057C0.238,-0.052 0.243,-0.05 0.249,-0.05C0.27,-0.05 0.29,-0.066 0.309,-0.098L0.323,-0.087C0.297,-0.025 0.254,0.006 0.195,0.006C0.166,0.006 0.141,-0.002 0.121,-0.018C0.101,-0.034 0.089,-0.052 0.083,-0.072C0.08,-0.083 0.078,-0.113 0.078,-0.162L0.078,-0.408L0.019,-0.408L0.019,-0.425C0.06,-0.454 0.094,-0.485 0.123,-0.517C0.152,-0.549 0.177,-0.584 0.199,-0.624L0.215,-0.624Z" style="fill:rgb(112,145,112);fill-rule:nonzero;"/>
        </g>
        <g transform="matrix(61.3011,-50.7145,49.7201,60.0991,1695.31,1757.23)">
            <path d="M0.249,-0.47C0.289,-0.47 0.326,-0.46 0.36,-0.439C0.394,-0.419 0.42,-0.39 0.438,-0.352C0.455,-0.314 0.464,-0.273 0.464,-0.228C0.464,-0.163 0.448,-0.109 0.415,-0.065C0.375,-0.013 0.32,0.014 0.25,0.014C0.182,0.014 0.129,-0.01 0.092,-0.059C0.055,-0.107 0.036,-0.163 0.036,-0.226C0.036,-0.292 0.055,-0.349 0.093,-0.397C0.131,-0.446 0.183,-0.47 0.249,-0.47ZM0.251,-0.436C0.234,-0.436 0.22,-0.429 0.208,-0.417C0.196,-0.404 0.189,-0.379 0.185,-0.343C0.181,-0.306 0.179,-0.254 0.179,-0.188C0.179,-0.154 0.181,-0.121 0.186,-0.091C0.19,-0.068 0.197,-0.05 0.209,-0.038C0.221,-0.026 0.234,-0.02 0.249,-0.02C0.264,-0.02 0.276,-0.024 0.286,-0.032C0.298,-0.043 0.307,-0.059 0.311,-0.079C0.318,-0.11 0.321,-0.172 0.321,-0.266C0.321,-0.321 0.318,-0.359 0.312,-0.38C0.305,-0.401 0.296,-0.416 0.284,-0.425C0.276,-0.432 0.265,-0.436 0.251,-0.436Z" style="fill:rgb(112,145,112);fill-rule:nonzero;"/>
        </g>
        <g transform="matrix(58.0596,-54.3956,53.329,56.9212,1740.68,1718.86)">
            <path d="M0.326,-0.676L0.326,-0.134C0.326,-0.094 0.327,-0.068 0.331,-0.056C0.335,-0.045 0.342,-0.036 0.354,-0.029C0.365,-0.022 0.383,-0.018 0.408,-0.018L0.423,-0.018L0.423,-0L0.075,-0L0.075,-0.018L0.092,-0.018C0.121,-0.018 0.141,-0.021 0.153,-0.028C0.165,-0.034 0.173,-0.043 0.177,-0.055C0.181,-0.066 0.184,-0.093 0.184,-0.134L0.184,-0.478C0.184,-0.508 0.182,-0.527 0.179,-0.535C0.176,-0.543 0.171,-0.549 0.163,-0.554C0.155,-0.56 0.146,-0.563 0.135,-0.563C0.119,-0.563 0.098,-0.557 0.075,-0.547L0.066,-0.564L0.31,-0.676L0.326,-0.676Z" style="fill:rgb(112,145,112);fill-rule:nonzero;"/>
        </g>
        <g transform="matrix(55.7209,-56.7888,55.6753,54.6284,1769.55,1691.79)">
            <path d="M0.47,-0.676L0.47,-0.662C0.411,-0.647 0.364,-0.628 0.328,-0.604C0.292,-0.581 0.264,-0.552 0.243,-0.518C0.223,-0.485 0.207,-0.443 0.195,-0.393C0.21,-0.403 0.222,-0.409 0.231,-0.412C0.252,-0.419 0.273,-0.422 0.295,-0.422C0.344,-0.422 0.386,-0.404 0.419,-0.368C0.452,-0.332 0.468,-0.283 0.468,-0.221C0.468,-0.177 0.459,-0.137 0.441,-0.101C0.424,-0.064 0.398,-0.036 0.365,-0.016C0.332,0.004 0.297,0.014 0.26,0.014C0.219,0.014 0.181,0.003 0.147,-0.02C0.112,-0.042 0.086,-0.075 0.066,-0.118C0.047,-0.161 0.037,-0.207 0.037,-0.258C0.037,-0.332 0.055,-0.401 0.091,-0.465C0.126,-0.529 0.177,-0.58 0.242,-0.618C0.308,-0.656 0.384,-0.675 0.47,-0.676ZM0.189,-0.354C0.186,-0.309 0.185,-0.276 0.185,-0.255C0.185,-0.21 0.189,-0.167 0.198,-0.125C0.207,-0.083 0.218,-0.053 0.233,-0.036C0.244,-0.024 0.257,-0.018 0.271,-0.018C0.286,-0.018 0.3,-0.027 0.312,-0.044C0.323,-0.062 0.329,-0.097 0.329,-0.15C0.329,-0.24 0.318,-0.302 0.296,-0.336C0.282,-0.359 0.264,-0.37 0.24,-0.37C0.227,-0.37 0.21,-0.364 0.189,-0.354Z" style="fill:rgb(112,145,112);fill-rule:nonzero;"/>
        </g>
    </g>
</svg>
