<?xml version="1.0" encoding="utf-8"?>
<!-- Generator: Adobe Illustrator 18.1.1, SVG Export Plug-In . SVG Version: 6.00 Build 0)  -->
<!DOCTYPE svg PUBLIC "-//W3C//DTD SVG 1.1//EN" "http://www.w3.org/Graphics/SVG/1.1/DTD/svg11.dtd">
<svg version="1.1" id="_x32_" xmlns="http://www.w3.org/2000/svg" xmlns:xlink="http://www.w3.org/1999/xlink" x="0px" y="0px"
	 viewBox="0 0 512 512" style="enable-background:new 0 0 512 512;" xml:space="preserve">
<style type="text/css">
	.st0{fill:#FFFFFF;}
</style>
<g>
	<path class="st0" d="M439.332,403.791c-12.382-18.544-31.189-28.799-48.863-35.463c-8.856-3.332-17.527-5.79-25.158-7.882
		c-7.617-2.071-14.245-3.819-18.695-5.496c-7.79-2.896-16.016-6.636-21.756-10.67c-2.866-2-5.077-4.063-6.36-5.819
		c-1.294-1.791-1.644-3.031-1.659-4.12c0-6.198,0-13.629,0-22.981c12.056,12.977,37.072,34.474,65.523,27.058
		c-18.28-17.491-16.18-80.728-16.363-107.908c3.336-6.535,6.346-14.769,9.538-25.933c1.687-5.905,2.465-11.042,2.465-15.621
		c0.008-5.267-1.075-9.846-3.067-13.558c-0.691-1.304-1.505-2.45-2.361-3.489c17.345-24.973,7.496-168.724-91.451-169.784
		C182.811-10.593,121.502,32.2,138.277,172.727c0.143,0.129,0.28,0.301,0.419,0.43c-0.541,0.76-1.164,1.383-1.627,2.242
		c-1.991,3.712-3.081,8.291-3.074,13.558c0.004,4.579,0.784,9.716,2.472,15.621c3.185,11.107,6.159,19.362,9.495,25.883
		c-0.183,27.151,1.931,90.467-16.359,107.958c28.483,7.424,53.52-14.124,65.562-27.108c0,9.373,0,16.818,0,23.031
		c0,0.924-0.366,2.25-1.795,4.148c-2.096,2.816-6.439,6.234-11.598,9.13c-5.144,2.931-11.06,5.46-16.238,7.287
		c-6.08,2.15-15.872,4.4-26.846,7.538c-16.488,4.773-35.979,11.637-51.836,25.237c-7.918,6.801-14.869,15.342-19.756,25.954
		c-4.894,10.605-7.7,23.21-7.692,37.957c0,3.425,0.15,6.958,0.462,10.619c0.222,2.573,1.196,4.651,2.343,6.364
		c2.182,3.217,5.077,5.596,8.703,8.04c6.349,4.2,15.148,8.312,26.409,12.34c33.711,12.023,89.521,23.03,158.68,23.044
		c56.19,0,103.62-7.294,137.47-16.452c16.936-4.594,30.458-9.616,40.228-14.639c4.894-2.53,8.854-5.031,11.988-7.768
		c1.573-1.383,2.949-2.837,4.11-4.564c1.139-1.713,2.12-3.791,2.343-6.364c0.305-3.647,0.455-7.18,0.455-10.59
		C452.624,431.96,447.572,416.116,439.332,403.791z M123.089,480.952c-0.176-0.043-0.388-0.093-0.563-0.144
		c-16.169-4.371-28.892-9.172-37.233-13.478c-4.156-2.135-7.22-4.164-8.914-5.661c-0.724-0.63-1.132-1.11-1.333-1.39
		c-0.236-3.01-0.372-5.919-0.372-8.685c0.025-17.134,4.213-29.645,10.688-39.462c9.258-14.016,23.876-22.801,39.324-28.892
		c0.667,3.182,1.283,6.743,1.785,10.728c1.147,8.986,1.831,19.798,1.831,31.579C128.302,442.83,126.701,462.177,123.089,480.952z
		 M359.059,180.1c0.054,0.036,0.122,0.057,0.175,0.086c0.874,0.566,1.584,1.218,2.236,2.415c0.645,1.204,1.26,3.102,1.275,6.356
		c0,2.809-0.498,6.586-1.884,11.436c-4.21,14.826-7.986,23.446-11.448,28.233c-1.734,2.421-3.321,3.934-5.084,5.166
		c-1.658,1.146-3.59,2.063-6.012,2.959C341.943,220.816,349.643,191.322,359.059,180.1z M174.127,236.931
		c-2.655-0.946-4.683-1.914-6.449-3.138c-2.612-1.849-4.976-4.357-7.743-9.509c-2.73-5.124-5.625-12.784-8.788-23.891
		c-1.39-4.851-1.884-8.628-1.884-11.436c0-1.024,0.082-1.884,0.189-2.658c10.792,15.95,20.462,37.784,25.883,51.07L174.127,236.931z
		 M256.001,443.733l-78.754-77.003c6.091-2.522,12.462-5.704,18.087-9.609c3.855-2.694,7.388-5.718,10.193-9.402
		c2.774-3.633,4.902-8.176,4.902-13.378c0-8.097,0-18.215,0-32.095v-2.931l-1.96-2.178c-9.867-10.985-22.941-25.51-28.458-50.274
		l3.959-89.743l18.509-32.389c0,0,62.46,64.778,124.916,60.148l7.381,53.163l-1.079,0.387l-0.763,4.371
		c-4.887,27.359-18.986,42.744-29.393,54.338l-1.96,2.178v2.931c0,13.88,0,23.998,0,32.095c-0.015,5.037,1.945,9.559,4.621,13.17
		c4.066,5.446,9.706,9.48,15.847,13.006c4.114,2.336,8.47,4.299,12.808,6.119L256.001,443.733z M436.953,460.256l-0.656,0.782
		c-1.125,1.139-3.397,2.852-6.589,4.664c-8.201,4.73-22.271,10.247-40.798,15.242c-3.612-18.774-5.212-38.121-5.206-55.398
		c-0.006-11.781,0.677-22.594,1.832-31.579c0.487-3.891,1.089-7.374,1.734-10.505c10.042,3.963,19.831,9.05,27.896,15.972
		c6.507,5.574,11.956,12.261,15.866,20.687c3.898,8.426,6.295,18.66,6.295,31.5C437.326,454.366,437.189,457.261,436.953,460.256z"
		/>
	<polygon class="st0" points="221.109,352.298 221.109,395.672 256.253,379.966 291.401,395.672 291.401,352.298 256.253,367.998 	
		"/>
</g>
</svg>
