<?xml version="1.0" encoding="utf-8"?>
<!-- Generator: Adobe Illustrator 15.1.0, SVG Export Plug-In . SVG Version: 6.00 Build 0)  -->
<!DOCTYPE svg PUBLIC "-//W3C//DTD SVG 1.1//EN" "http://www.w3.org/Graphics/SVG/1.1/DTD/svg11.dtd">
<svg version="1.1" id="_x32_" xmlns="http://www.w3.org/2000/svg" xmlns:xlink="http://www.w3.org/1999/xlink" x="0px" y="0px"
	 width="512px" height="512px" viewBox="0 0 512 512" style="enable-background:new 0 0 512 512;" xml:space="preserve">
<style type="text/css">
<![CDATA[
	.st0{fill:#FFFFFF;}
]]>
</style>
<g>
	<path class="st0" d="M352.094,190.297c-88.313,0-159.891,71.594-159.891,159.891c0,88.313,71.578,159.906,159.891,159.906
		C440.422,510.094,512,438.5,512,350.188C512,261.891,440.422,190.297,352.094,190.297z M404.313,394.688
		c-2.922,5.469-6.938,10.031-12.016,13.781c-5.078,3.719-11.141,6.484-18.266,8.313c-3.094,0.797-6.328,1.344-9.609,1.797v20.625
		h-24.641v-20.234c-7-0.563-13.719-1.672-20.031-3.406c-9.625-2.656-22.266-13.281-22.266-13.281c-1.078-0.625-1.797-1.766-1.953-3
		c-0.156-1.219,0.281-2.453,1.156-3.375l12.344-12.328c1.313-1.328,3.391-1.578,5-0.578c0,0,9.25,8.031,16.219,9.938
		c7,1.891,13.938,2.844,20.875,2.844c8.75,0,15.969-1.547,21.688-4.625c5.734-3.109,8.594-7.922,8.594-14.469
		c0-4.719-1.406-8.469-4.234-11.188c-2.813-2.719-7.578-4.438-14.328-5.188l-22.109-1.906c-13.078-1.25-23.188-4.906-30.266-10.906
		c-7.109-6.016-10.641-15.125-10.641-27.297c0-6.703,1.359-12.703,4.109-18c2.703-5.25,6.438-9.734,11.172-13.359
		s10.266-6.344,16.516-8.156c2.594-0.766,5.375-1.266,8.156-1.75v-17.766h24.641v17.422c5.703,0.563,11.203,1.5,16.313,2.891
		c8.625,2.359,17.703,9.453,17.703,9.453c1.125,0.578,1.922,1.703,2.094,2.969c0.188,1.25-0.234,2.531-1.125,3.438l-11.563,11.781
		c-1.25,1.219-3.156,1.563-4.703,0.75c0,0-6.875-4.875-12.781-6.438c-5.922-1.547-12.141-2.313-18.688-2.313
		c-8.563,0-14.891,1.641-18.953,4.906c-4.094,3.281-6.125,7.563-6.125,12.813c0,4.719,1.406,8.375,4.375,10.906
		c2.891,2.563,7.781,4.234,14.703,4.938l19.359,1.625c14.391,1.281,25.266,5.094,32.578,11.438
		c7.406,6.375,11.094,15.656,11.094,27.844C408.703,382.906,407.25,389.234,404.313,394.688z"/>
	<path class="st0" d="M259.719,57.203c0,30.547-58.125,55.281-129.859,55.281S0,87.75,0,57.203S58.125,1.906,129.859,1.906
		S259.719,26.656,259.719,57.203z"/>
	<path class="st0" d="M0,150.813c0,30.531,58.125,55.281,129.859,55.281s129.859-24.75,129.859-55.281v-13.75
		c0-4.219-2.125-8.172-5.641-10.5c-3.516-2.313-7.984-2.734-11.859-1.078c0,0-40.625,25.109-112.359,25.109
		S17.531,125.484,17.531,125.484c-3.906-1.656-8.375-1.234-11.875,1.078C2.125,128.891,0,132.844,0,137.063V150.813z"/>
	<path class="st0" d="M171.828,244.313c-10.594,17.813-18.484,37.281-23.281,57.906c-6.141,0.406-12.344,0.578-18.719,0.578
		c-71.672,0-129.813-24.766-129.813-55.344v-13.672c0-4.219,2.078-8.188,5.641-10.516c3.469-2.313,7.953-2.734,11.844-1.078
		c0,0,40.656,25.094,112.328,25.094C145.328,247.281,159.328,246.125,171.828,244.313z"/>
	<path class="st0" d="M148.719,398.891c-6.125,0.422-12.516,0.578-18.891,0.578c-71.672,0-129.813-24.766-129.813-55.25v-13.75
		c0-4.219,2.078-8.203,5.641-10.531c3.469-2.313,7.953-2.734,11.844-1.078c0,0,40.656,25.109,112.328,25.109
		c4.563,0,8.953-0.078,13.25-0.25c-0.156,2.156-0.156,4.313-0.156,6.469C142.922,366.906,144.906,383.234,148.719,398.891z"/>
	<path class="st0" d="M195.359,488.531c-19.234,4.875-41.578,7.625-65.531,7.625c-71.672,0-129.813-24.781-129.813-55.266v-13.75
		c0-4.219,2.078-8.203,5.641-10.516c3.469-2.313,7.953-2.734,11.844-1.094c0,0,40.656,25.109,112.328,25.109
		c11.766,0,22.781-0.656,32.813-1.828C171.172,456.969,182.188,473.703,195.359,488.531z"/>
</g>
</svg>
