<?xml version="1.0" encoding="utf-8"?>
<!-- Generator: Adobe Illustrator 18.1.1, SVG Export Plug-In . SVG Version: 6.00 Build 0)  -->
<!DOCTYPE svg PUBLIC "-//W3C//DTD SVG 1.1//EN" "http://www.w3.org/Graphics/SVG/1.1/DTD/svg11.dtd">
<svg version="1.1" id="_x32_" xmlns="http://www.w3.org/2000/svg" xmlns:xlink="http://www.w3.org/1999/xlink" x="0px" y="0px"
	 viewBox="0 0 512 512" style="enable-background:new 0 0 512 512;" xml:space="preserve">
<style type="text/css">
	.st0{fill:#FFFFFF;}
</style>
<g>
	<path class="st0" d="M452.421,155.539c-36.6-36.713-87.877-59.612-143.839-59.579h-87.179V9.203L5.513,228.805h215.889h87.179
		c19.702,0.033,36.924,7.8,49.898,20.659c12.876,12.99,20.644,30.212,20.676,49.914c-0.032,19.703-7.8,36.924-20.676,49.898
		c-12.974,12.876-30.196,20.642-49.898,20.676H0v132.844h308.582c55.962,0.033,107.239-22.866,143.839-59.579
		c36.715-36.6,59.612-87.877,59.579-143.84C512.033,243.416,489.136,192.14,452.421,155.539z"/>
</g>
</svg>
