<?xml version="1.0" encoding="utf-8"?>
<!-- Generator: Adobe Illustrator 18.1.1, SVG Export Plug-In . SVG Version: 6.00 Build 0)  -->
<!DOCTYPE svg PUBLIC "-//W3C//DTD SVG 1.1//EN" "http://www.w3.org/Graphics/SVG/1.1/DTD/svg11.dtd">
<svg version="1.1" id="_x32_" xmlns="http://www.w3.org/2000/svg" xmlns:xlink="http://www.w3.org/1999/xlink" x="0px" y="0px"
	 viewBox="0 0 512 512" style="enable-background:new 0 0 512 512;" xml:space="preserve">
<style type="text/css">
	.st0{fill:#FFFFFF;}
</style>
<g>
	<path class="st0" d="M441.479,402.522c-12.527-18.76-31.553-29.133-49.435-35.874c-8.969-3.373-17.731-5.862-25.451-7.974
		c-7.707-2.098-14.413-3.867-18.918-5.561c-7.878-2.928-16.202-6.719-22.009-10.799c-2.9-2.023-5.136-4.107-6.431-5.883
		c-1.31-1.817-1.666-3.072-1.68-4.168c0-7.576,0-17.045,0-29.517c10.079-11.218,24.56-28.599,30.511-56.155
		c2.078-0.932,4.135-1.995,6.116-3.373c4.929-3.401,9.112-8.344,12.657-15.064c3.565-6.747,6.726-15.373,10.1-27.173
		c1.708-5.978,2.496-11.176,2.496-15.804c0.007-5.334-1.09-9.963-3.106-13.72c-1.241-2.345-2.839-4.162-4.519-5.705
		c3.394-25.404,9.058-92.357-21.68-111.308c5.869-14.42,5.787-29.73-6.782-42.298c-10.785-3.593-35.934-3.593-55.702-8.988
		C267.879-2.238,178.038-7.62,151.085,49.879c-26.589,7.089-31.327,115.127-13.733,119.275c-0.556,0.775-1.2,1.412-1.673,2.304
		c-2.016,3.757-3.12,8.385-3.113,13.72c0.007,4.628,0.796,9.825,2.503,15.804c4.512,15.715,8.584,25.863,13.857,33.31
		c2.633,3.696,5.637,6.664,8.9,8.927c1.981,1.378,4.038,2.44,6.116,3.373c5.952,27.556,20.433,44.938,30.512,56.155
		c0,12.472,0,21.941,0,29.517c0,0.932-0.37,2.276-1.817,4.196c-2.118,2.852-6.514,6.308-11.732,9.236
		c-5.204,2.962-11.189,5.526-16.428,7.371c-6.15,2.18-16.058,4.45-27.159,7.631c-16.682,4.827-36.402,11.772-52.445,25.534
		c-8.008,6.877-15.044,15.516-19.987,26.254c-4.95,10.73-7.789,23.484-7.782,38.403c0,3.463,0.151,7.042,0.466,10.744
		c0.226,2.598,1.214,4.703,2.373,6.438c2.207,3.25,5.135,5.656,8.804,8.132c6.424,4.25,15.324,8.406,26.72,12.486
		c34.104,12.163,90.568,23.298,160.538,23.312c56.847,0,104.829-7.378,139.077-16.648c17.134-4.642,30.814-9.729,40.7-14.81
		c4.95-2.557,8.955-5.087,12.129-7.857c1.591-1.398,2.982-2.866,4.155-4.614c1.152-1.735,2.146-3.84,2.372-6.438
		c0.308-3.696,0.459-7.268,0.459-10.717C454.924,431.025,449.816,414.994,441.479,402.522z M178.175,239.646l-0.782-4.422
		l-4.224-1.508c-2.688-0.96-4.738-1.94-6.527-3.182c-2.64-1.865-5.032-4.409-7.83-9.62c-2.763-5.184-5.69-12.932-8.893-24.17
		c-1.406-4.909-1.906-8.728-1.906-11.566c0.007-3.292,0.638-5.218,1.283-6.431c0.576-1.05,1.261-1.694,2.016-2.208
		c9.023,9.332,14.261,24.395,14.261,24.395l0.583-59.679l26.254-37.471c14.378,5.389,91.637,7.185,114.997-3.593
		c4.779-2.208,10.388-5.938,16.024-10.703c2.249,2.187,3.744,3.517,3.744,3.517l17.971,113.201l8.248-31.094l2.352-0.124
		c0.281-0.042,2.989,0.178,4.696,1.316c0.884,0.569,1.604,1.227,2.263,2.441c0.651,1.213,1.275,3.14,1.289,6.431
		c0,2.839-0.5,6.658-1.906,11.566c-4.258,15.002-8.077,23.724-11.58,28.565c-1.756,2.447-3.36,3.976-5.143,5.224
		c-1.789,1.241-3.839,2.221-6.527,3.182l-4.224,1.508l-0.782,4.422c-4.944,27.68-19.206,43.244-29.737,54.976l-1.981,2.208v2.962
		c0,6.13,0,11.423,0,16.25l-44.704,25.548l-47.516-27.145c0-4.423,0-9.174,0-14.652v-2.962l-1.982-2.208
		C197.38,282.89,183.118,267.326,178.175,239.646z M235.016,420.781l-56.395-56.765c5.451-2.386,11.019-5.245,16.003-8.708
		c3.902-2.729,7.474-5.786,10.312-9.51c2.804-3.675,4.957-8.276,4.957-13.534c0-1.529,0-3.208,0-4.889l33.275,19.02l-8.798,18.732
		l9.016,11.868L235.016,420.781z M256.004,495.236c-4.443,0-8.057-3.6-8.057-8.05c0-4.45,3.614-8.056,8.057-8.056
		c4.45,0,8.05,3.606,8.05,8.056C264.053,491.636,260.454,495.236,256.004,495.236z M256.004,456.044c-4.443,0-8.057-3.6-8.057-8.05
		c0-4.443,3.614-8.057,8.057-8.057c4.45,0,8.05,3.614,8.05,8.057C264.053,452.444,260.454,456.044,256.004,456.044z
		 M279.069,418.807l-8.194-41.811l9.023-11.868l-8.626-18.52l30.841-17.628c0,1.097,0,2.256,0,3.284
		c-0.014,5.094,1.968,9.667,4.676,13.322c4.114,5.513,9.818,9.593,16.03,13.158c3.414,1.94,7.001,3.648,10.607,5.231
		L279.069,418.807z"/>
</g>
</svg>
