<?xml version="1.0" standalone="no"?>
<!DOCTYPE svg PUBLIC "-//W3C//DTD SVG 20010904//EN"
 "http://www.w3.org/TR/2001/REC-SVG-20010904/DTD/svg10.dtd">
<svg version="1.0" xmlns="http://www.w3.org/2000/svg"
 width="700.000000pt" height="700.000000pt" viewBox="0 0 700.000000 700.000000"
 preserveAspectRatio="xMidYMid meet">
<metadata>
Created by potrace 1.14, written by Peter Selinger 2001-2017
</metadata>
<g transform="translate(0.000000,700.000000) scale(0.100000,-0.100000)"
fill="#000000" stroke="none">
<path d="M3379 6989 c-59 -13 -121 -41 -383 -168 -136 -67 -249 -121 -251
-121 -1 0 -105 -50 -231 -111 -126 -61 -278 -135 -339 -164 -60 -29 -177 -85
-260 -125 -82 -40 -213 -103 -290 -140 -77 -37 -205 -99 -285 -138 -217 -105
-432 -208 -555 -267 -333 -159 -493 -240 -529 -267 -101 -76 -181 -199 -204
-313 -10 -48 -9 -189 1 -230 16 -61 34 -100 267 -580 45 -93 108 -224 140
-290 32 -66 90 -187 130 -270 85 -176 179 -372 260 -540 32 -66 92 -192 135
-280 43 -88 103 -214 135 -280 32 -66 92 -192 135 -280 80 -165 174 -361 275
-570 32 -66 97 -201 145 -300 48 -99 102 -211 120 -250 18 -38 76 -160 130
-270 54 -110 120 -247 147 -305 196 -412 247 -507 301 -563 65 -66 117 -100
206 -135 56 -22 82 -25 176 -25 79 0 123 4 157 16 44 16 162 72 523 247 422
205 371 186 578 206 34 3 89 10 122 14 56 8 252 5 355 -4 25 -3 83 -7 130 -10
47 -3 110 -8 140 -11 83 -7 187 -15 260 -20 81 -5 209 -14 275 -20 28 -2 91
-7 140 -10 50 -3 106 -8 125 -10 19 -2 78 -7 130 -10 52 -4 113 -8 135 -10 22
-3 101 -7 175 -10 107 -4 147 -2 190 11 140 41 233 108 310 223 59 88 83 182
95 376 3 55 8 120 10 145 2 25 6 86 10 135 3 50 8 113 10 140 7 77 14 171 20
275 3 52 8 109 10 126 2 17 7 75 10 130 4 54 8 115 10 134 2 19 6 80 10 135 3
55 8 116 10 135 2 19 7 78 10 130 4 52 8 113 10 135 2 22 6 81 9 130 4 50 9
115 11 145 3 30 7 89 10 130 12 183 14 209 30 403 3 34 7 98 10 142 3 44 7 98
10 120 2 22 6 90 10 150 4 61 8 121 10 135 2 14 7 70 10 125 4 55 8 116 10
135 2 19 6 80 10 135 4 55 8 116 10 135 2 19 6 80 10 135 4 55 8 117 10 137 2
21 7 77 10 125 3 49 7 113 10 143 2 30 7 89 10 130 3 41 7 104 10 140 11 134
15 187 20 275 3 50 8 102 10 116 10 60 13 288 4 334 -34 180 -196 353 -372
399 -62 16 -101 20 -377 41 -190 14 -184 13 -200 37 -103 153 -272 248 -441
248 -31 0 -141 -9 -245 -20 -104 -11 -212 -22 -240 -25 -50 -6 -51 -5 -77 32
-103 152 -259 235 -440 235 -66 -1 -111 -9 -227 -42 -80 -23 -152 -43 -160
-45 -8 -3 -73 -21 -143 -41 l-128 -36 -47 44 c-99 93 -210 139 -347 143 -49 2
-106 -1 -126 -6z m227 -278 c38 -18 124 -103 124 -121 0 -4 63 -137 140 -295
77 -158 140 -288 140 -290 0 -1 63 -132 140 -290 77 -158 140 -288 140 -290 0
-1 51 -108 114 -237 63 -129 130 -268 149 -309 19 -41 83 -173 142 -294 59
-121 124 -256 145 -300 21 -44 77 -161 125 -260 48 -99 113 -234 145 -300 32
-66 90 -187 130 -270 40 -82 101 -208 135 -280 34 -71 97 -202 140 -290 42
-88 103 -214 135 -280 32 -66 99 -205 150 -310 145 -300 144 -297 141 -370 -3
-95 -65 -188 -154 -233 -91 -45 -539 -262 -542 -262 -1 0 -119 -57 -261 -126
-143 -69 -299 -145 -349 -169 -49 -23 -162 -78 -250 -120 -230 -111 -412 -199
-550 -265 -295 -141 -382 -183 -560 -270 -490 -238 -431 -214 -520 -215 -69 0
-86 4 -125 27 -25 14 -57 39 -72 55 -22 23 -168 309 -278 548 -15 33 -74 155
-130 270 -56 116 -121 251 -145 300 -23 50 -80 167 -125 260 -171 353 -255
527 -400 830 -32 66 -97 201 -145 300 -48 99 -111 230 -140 290 -29 61 -90
187 -135 280 -45 94 -106 220 -135 280 -49 103 -81 168 -295 610 -45 94 -102
211 -125 260 -23 50 -78 162 -121 250 -77 159 -78 161 -78 240 -1 63 4 88 21
120 43 81 67 96 388 250 204 98 354 170 510 245 83 40 204 98 270 130 66 32
210 101 320 155 194 94 332 161 560 270 61 29 191 92 290 140 99 48 230 111
290 140 61 29 182 88 270 130 88 43 171 81 185 86 41 14 151 3 196 -20z m1041
-12 c47 -15 109 -64 137 -106 13 -21 40 -96 60 -168 20 -71 43 -152 51 -180 8
-27 49 -171 90 -320 42 -148 96 -340 120 -425 24 -85 70 -249 103 -365 33
-115 72 -253 86 -305 15 -52 29 -99 30 -105 5 -21 18 -65 276 -980 238 -844
290 -1029 287 -1032 -2 -1 -16 25 -32 60 -16 34 -78 163 -138 287 -60 124
-124 257 -142 295 -18 39 -77 160 -130 270 -53 110 -123 254 -155 320 -32 66
-93 192 -135 280 -43 88 -99 205 -125 260 -26 55 -80 168 -120 250 -40 83
-103 213 -140 290 -37 77 -98 203 -135 280 -37 77 -96 199 -130 270 -95 199
-185 385 -264 548 -39 81 -102 212 -141 292 -38 80 -70 149 -70 154 0 5 19 14
43 20 23 6 136 37 251 70 213 59 250 64 323 40z m993 -224 c84 -28 160 -118
175 -204 2 -14 7 -57 10 -96 3 -38 8 -86 10 -105 5 -35 12 -106 20 -192 3 -27
7 -70 10 -98 3 -27 7 -74 10 -102 3 -29 7 -73 10 -98 2 -25 7 -74 10 -110 4
-36 8 -76 10 -90 2 -14 7 -59 10 -100 3 -41 8 -86 10 -100 2 -14 6 -56 10 -95
3 -38 8 -90 11 -115 2 -25 6 -65 9 -90 4 -42 9 -87 20 -197 2 -27 7 -70 10
-98 3 -27 7 -72 10 -100 2 -27 7 -72 10 -100 3 -27 7 -70 9 -95 8 -80 17 -164
21 -205 3 -22 7 -67 10 -100 3 -33 7 -78 10 -100 2 -22 7 -71 10 -110 4 -38 8
-80 10 -93 2 -12 7 -57 10 -100 4 -42 8 -88 10 -102 2 -14 7 -61 11 -105 3
-44 8 -88 10 -97 1 -9 5 -48 9 -85 3 -37 8 -84 10 -103 3 -19 7 -71 11 -115 3
-44 8 -88 9 -97 2 -9 6 -48 10 -85 3 -37 8 -84 11 -103 12 -72 -6 -18 -81 250
-42 151 -88 313 -101 360 -29 100 -26 90 -145 510 -51 179 -98 348 -105 375
-7 28 -94 338 -193 690 -100 352 -191 674 -203 715 -11 41 -29 102 -39 134
-11 33 -19 65 -19 71 0 6 -8 38 -19 71 -37 119 -163 575 -160 579 3 2 27 6 54
9 28 3 68 7 90 10 22 2 72 8 110 11 39 4 71 8 72 9 1 1 36 3 78 5 50 1 92 -3
125 -14z m560 -270 c52 -3 131 -8 175 -11 138 -9 217 -41 269 -108 57 -75 65
-155 41 -416 -2 -25 -7 -81 -10 -125 -3 -44 -7 -105 -10 -135 -2 -30 -7 -89
-10 -130 -3 -41 -8 -100 -10 -130 -3 -30 -7 -95 -11 -145 -3 -49 -7 -106 -9
-125 -2 -19 -6 -80 -10 -135 -4 -55 -9 -118 -10 -140 -2 -22 -6 -85 -10 -140
-3 -55 -8 -111 -10 -125 -3 -21 -11 -132 -20 -270 -3 -52 -16 -219 -20 -270
-2 -25 -7 -81 -10 -125 -8 -125 -15 -215 -20 -280 -6 -63 -10 -120 -20 -270
-4 -49 -8 -106 -10 -125 -2 -19 -7 -80 -10 -135 -4 -55 -8 -116 -11 -135 -2
-19 -4 -59 -5 -87 0 -29 -4 -53 -8 -53 -4 0 -8 6 -8 13 0 15 -15 157 -28 277
-2 19 -7 69 -11 110 -3 41 -7 82 -9 90 -2 8 -6 53 -10 100 -4 47 -8 92 -10
100 -2 8 -6 53 -10 100 -4 47 -8 92 -10 100 -2 8 -6 50 -10 93 -3 43 -8 87
-10 97 -2 10 -6 54 -10 97 -3 43 -7 94 -10 113 -10 94 -17 159 -20 200 -2 25
-6 65 -9 90 -3 25 -8 77 -11 115 -4 39 -8 81 -10 95 -2 14 -7 61 -10 105 -4
44 -9 87 -10 97 -2 9 -6 53 -10 98 -4 45 -8 89 -10 98 -1 10 -6 55 -10 102 -4
47 -9 93 -11 103 -1 9 -6 53 -9 96 -3 44 -8 89 -10 99 -2 11 -6 53 -10 94 -3
40 -8 89 -10 108 -5 43 -10 90 -30 295 -9 88 -18 174 -20 190 -2 17 -7 62 -10
100 -4 39 -8 84 -10 100 -14 117 -15 154 -3 150 7 -2 56 -7 108 -10z m-8
-4605 c2 -102 -65 -207 -157 -246 -22 -9 -143 -45 -270 -81 -252 -71 -482
-136 -532 -152 -18 -5 -33 -7 -33 -5 0 3 84 46 188 96 611 295 588 283 660
356 40 40 77 89 92 121 l25 54 13 -44 c7 -24 14 -69 14 -99z m130 -401 c-13
-138 -107 -237 -242 -254 -25 -3 -61 -8 -80 -10 -19 -3 -66 -7 -105 -10 -38
-3 -88 -7 -110 -10 -69 -8 -128 -14 -195 -20 -36 -4 -81 -8 -100 -10 -19 -3
-66 -7 -105 -10 -38 -4 -77 -8 -85 -11 -9 -3 -11 -2 -5 4 6 5 71 25 145 46 74
21 254 71 400 112 286 80 363 111 425 172 22 21 45 38 50 37 6 -1 9 -17 7 -36z
m-67 -489 c-29 -32 -99 -69 -146 -77 -24 -4 -46 -7 -49 -6 -3 0 -48 4 -100 7
-125 9 -149 12 -157 20 -3 3 9 6 28 7 19 0 41 2 50 4 8 1 56 6 105 10 103 8
226 29 252 44 28 17 36 12 17 -9z"/>
<path d="M949 5076 c0 -1 -3 -16 -6 -35 -2 -19 -20 -89 -40 -155 -42 -146 -47
-166 -47 -232 0 -67 37 -142 82 -168 68 -38 164 -15 207 51 l18 27 23 -64 c12
-34 26 -85 29 -111 4 -27 9 -49 12 -49 16 0 123 56 123 64 0 6 -13 24 -29 41
-16 16 -45 56 -65 87 l-36 57 40 -1 c83 -1 160 68 160 144 0 106 -75 179 -257
248 -48 19 -116 48 -150 66 -35 17 -63 31 -64 30z"/>
<path d="M2659 4403 c-2 -80 -38 -238 -109 -468 -45 -150 -106 -368 -115 -417
-35 -178 -14 -368 52 -491 93 -170 281 -251 463 -197 97 28 202 109 249 192
34 59 36 58 83 -77 52 -147 80 -249 99 -360 16 -94 19 -105 28 -105 5 0 84 36
176 80 l167 81 -44 47 c-62 67 -147 176 -199 257 -63 98 -119 191 -119 200 0
3 15 3 33 -1 155 -34 361 54 440 189 60 101 72 242 31 347 -27 70 -99 174
-157 226 -116 105 -212 155 -582 304 -232 93 -376 160 -443 205 -20 14 -40 25
-44 25 -5 0 -8 -17 -9 -37z"/>
<path d="M5019 2448 c-1 -33 -3 -40 -44 -178 -65 -214 -51 -338 44 -389 60
-33 133 -19 186 36 19 20 37 34 38 32 7 -8 47 -145 53 -181 l6 -37 64 32 c35
17 64 34 64 37 0 3 -18 25 -39 48 -21 24 -50 65 -65 91 l-26 48 44 0 c120 2
187 115 133 224 -29 57 -96 106 -209 153 -51 21 -125 54 -164 72 -40 19 -75
34 -78 34 -3 0 -6 -10 -7 -22z"/>
</g>
</svg>
